<?xml version="1.0" encoding="UTF-8"?>
<svg version="1.1" xmlns="http://www.w3.org/2000/svg" width="2816" height="1536">
<path d="M0 0 C1.28878555 -0.00153328 1.28878555 -0.00153328 2.60360718 -0.00309753 C5.4292396 0.00175989 8.25159606 0.05610954 11.07666016 0.11108398 C13.04104853 0.12414685 15.00545978 0.13410777 16.96987915 0.14109802 C22.1292872 0.16776945 27.28730615 0.23648429 32.44616699 0.31402588 C37.71473398 0.38575468 42.98352642 0.41763013 48.25244141 0.45288086 C58.58247735 0.52785584 68.9114843 0.64725909 79.24072266 0.79467773 C77.15136754 6.12525739 74.40398016 10.78645883 71.42822266 15.66967773 C70.81930176 16.66926514 70.21038086 17.66885254 69.58300781 18.69873047 C62.21158848 30.65250633 54.25292031 42.20474186 46.32971191 53.79606628 C33.28165464 72.8990102 20.52480652 92.19106204 8.24072266 111.79467773 C7.64485352 112.7447168 7.04898437 113.69475586 6.43505859 114.67358398 C2.65997348 120.69626313 -1.10359099 126.72606316 -4.86376953 132.75805664 C-6.75457487 135.78714433 -8.65059537 138.81290213 -10.54833984 141.83764648 C-17.27367415 152.56236855 -23.92887176 163.32440631 -30.48999023 174.15039062 C-35.30610532 182.08388994 -40.22130256 189.95270967 -45.15380859 197.81420898 C-49.41020884 204.60858701 -53.60402007 211.43803424 -57.75927734 218.29467773 C-62.53053563 226.16779242 -67.36655632 233.99647002 -72.25927734 241.79467773 C-77.78937641 250.60983565 -83.23741496 259.47070403 -88.63476562 268.36767578 C-92.43767558 274.63321358 -96.27076596 280.87883357 -100.13427734 287.10717773 C-110.09717519 303.17030769 -120.01651639 319.25977319 -129.82177734 335.41967773 C-134.51088836 343.14615942 -139.26640823 350.82750147 -144.07177734 358.48217773 C-149.96009079 367.8632844 -155.73860114 377.30604474 -161.47320557 386.78143311 C-166.60791227 395.2652263 -171.78756866 403.71909582 -177.02197266 412.1418457 C-180.93204546 418.44005569 -184.79003078 424.76861357 -188.63427734 431.10717773 C-193.38552875 438.93811469 -198.20127813 446.72488705 -203.07177734 454.48217773 C-209.25749931 464.33853018 -215.32033862 474.26530335 -221.34570312 484.2199707 C-226.82835002 493.27595471 -232.36308398 502.29884802 -237.921875 511.30834961 C-241.22120878 516.65915523 -244.50746936 522.01722458 -247.76708984 527.39233398 C-248.40751221 528.44831787 -249.04793457 529.50430176 -249.70776367 530.59228516 C-250.91781011 532.5900108 -252.1260858 534.58881048 -253.33227539 536.58886719 C-253.87150635 537.47920654 -254.4107373 538.3695459 -254.96630859 539.28686523 C-255.43528564 540.06400879 -255.9042627 540.84115234 -256.38745117 541.6418457 C-256.84015381 542.35228027 -257.29285645 543.06271484 -257.75927734 543.79467773 C-258.24684509 544.83723221 -258.24684509 544.83723221 -258.7442627 545.90084839 C-262.08986685 549.04524405 -265.95544631 548.31679853 -270.37133789 548.2487793 C-271.3568866 548.2493634 -272.3424353 548.24994751 -273.35784912 548.25054932 C-276.62092098 548.24775883 -279.88308349 548.2166206 -283.14599609 548.18530273 C-285.40614828 548.17784379 -287.66630693 548.17214923 -289.9264679 548.16815186 C-295.87950448 548.15286833 -301.83215162 548.1135627 -307.78503418 548.06933594 C-313.85777518 548.02844206 -319.93057901 548.0101534 -326.00341797 547.98999023 C-337.92220901 547.9470714 -349.84071081 547.87878692 -361.75927734 547.79467773 C-360.49815748 544.57953501 -359.18231736 541.62731688 -357.39599609 538.66967773 C-356.92822754 537.89197021 -356.46045898 537.1142627 -355.97851562 536.31298828 C-355.47304199 535.4819458 -354.96756836 534.65090332 -354.44677734 533.79467773 C-353.91552246 532.91529541 -353.38426758 532.03591309 -352.83691406 531.12988281 C-348.52569622 524.01163924 -344.15017209 516.93352013 -339.75805664 509.86499023 C-335.72077966 503.36417845 -331.73061007 496.83595476 -327.75927734 490.29467773 C-322.80748098 482.14166501 -317.81627822 474.01463243 -312.7878418 465.90869141 C-308.4926734 458.98393335 -304.21603088 452.04794118 -299.94677734 445.10717773 C-299.27533691 444.0155835 -298.60389648 442.92398926 -297.91210938 441.79931641 C-296.54387402 439.57466949 -295.17571031 437.34997852 -293.80761719 435.12524414 C-289.79545207 428.6015306 -285.78080215 422.07934595 -281.76660156 415.55688477 C-278.3948329 410.07807006 -275.0236985 404.598867 -271.65380859 399.11889648 C-265.01394704 388.32278572 -258.36565086 377.5321459 -251.68774414 366.75952148 C-248.08557633 360.94569 -244.49961644 355.12207086 -240.91943359 349.29467773 C-234.46043879 338.78176489 -227.95975334 328.29683587 -221.40869141 317.84106445 C-215.42232835 308.27702457 -209.51351661 298.66592844 -203.60693359 289.05249023 C-198.53716098 280.80195617 -193.43725236 272.57016468 -188.3359375 264.33911133 C-185.64219181 259.99191133 -182.95085056 255.64322304 -180.25927734 251.29467773 C-177.04557075 246.10256606 -173.83147332 240.91069995 -170.61474609 235.72045898 C-165.36636771 227.25011881 -160.12887895 218.77335711 -154.91259766 210.28320312 C-147.82139836 198.74250672 -140.68445049 187.23206926 -133.48974609 175.75561523 C-130.93839328 171.68500809 -128.40084056 167.6062152 -125.87255859 163.52124023 C-118.7781485 152.07374654 -111.57823801 140.76206592 -103.75927734 129.79467773 C-103.26250488 129.09745605 -102.76573242 128.40023437 -102.25390625 127.68188477 C-91.8656483 113.14220347 -81.26079843 98.75496971 -70.50927734 84.48217773 C-66.03735153 78.54201101 -61.67619884 72.53328867 -57.37255859 66.47045898 C-49.37299442 55.20099997 -41.22720154 44.03791883 -33.00830078 32.92773438 C-30.04530237 28.91709847 -27.10265531 24.89381552 -24.19677734 20.84155273 C-23.61927734 20.0365332 -23.04177734 19.23151367 -22.44677734 18.40209961 C-21.36054324 16.88464062 -20.2769908 15.36525657 -19.19677734 13.84350586 C-18.45427734 12.80613281 -18.45427734 12.80613281 -17.69677734 11.74780273 C-17.27267578 11.15128906 -16.84857422 10.55477539 -16.41162109 9.94018555 C-15.86634766 9.23216797 -15.32107422 8.52415039 -14.75927734 7.79467773 C-14.37452429 7.2294424 -13.98977123 6.66420706 -13.59335899 6.08184338 C-9.55157048 0.63930045 -6.62202425 -0.20798379 0 0 Z " fill="#364352" transform="translate(901.75927734375,505.205322265625)"/>
<path d="M0 0 C23.67954441 19.38418519 39.78587823 45.34851709 43.51953125 76.0625 C44.84823832 94.49014227 44.01582673 111.63288494 37.51953125 129.0625 C37.25221191 129.79984375 36.98489258 130.5371875 36.70947266 131.296875 C27.04487751 157.30644229 6.80699482 179.30903902 -17.890625 191.78515625 C-26.79769286 195.78362184 -36.05019063 198.60052382 -45.48046875 201.0625 C-46.13144531 201.25013916 -46.78242187 201.43777832 -47.453125 201.63110352 C-54.81505391 203.56066923 -62.28813029 203.50142681 -69.85546875 203.5 C-70.56401001 203.50139984 -71.27255127 203.50279968 -72.00256348 203.50424194 C-83.77397017 203.48513791 -94.40323253 202.18828002 -105.48046875 198.0625 C-106.55167969 197.68996094 -107.62289062 197.31742188 -108.7265625 196.93359375 C-130.59947858 188.59690462 -151.19579208 173.17234742 -163.48046875 153.0625 C-164.00785645 152.21244385 -164.00785645 152.21244385 -164.54589844 151.34521484 C-170.68250856 141.35556691 -175.0401659 131.25576073 -178.48046875 120.0625 C-178.80917969 119.00675781 -179.13789062 117.95101562 -179.4765625 116.86328125 C-187.20267177 90.35792075 -182.07420435 60.86515077 -169.28271484 36.81005859 C-164.24383337 27.89234032 -158.30881443 19.70251696 -151.48046875 12.0625 C-150.92101562 11.43214844 -150.3615625 10.80179688 -149.78515625 10.15234375 C-111.37094226 -30.58156915 -43.72518818 -33.56416244 0 0 Z " fill="#3B9FA2" transform="translate(965.48046875,849.9375)"/>
<path d="M0 0 C1.24265625 0.3403125 2.4853125 0.680625 3.765625 1.03125 C18.66081804 5.56723471 31.1167069 13.06179835 43 23 C43.94617188 23.78117188 44.89234375 24.56234375 45.8671875 25.3671875 C65.79609126 42.586212 79.99789243 67.75148429 83 94 C84.71015225 128.0872707 76.51766626 157.87819506 53.51123047 183.66894531 C39.25740679 199.17847369 22.23586074 210.12020452 2.3125 216.875 C1.04877563 217.30462036 1.04877563 217.30462036 -0.24047852 217.74291992 C-20.63456211 224.30923424 -44.61779028 224.80275797 -65 218 C-65.99531738 217.68651611 -65.99531738 217.68651611 -67.01074219 217.36669922 C-81.58952576 212.7172305 -94.54724855 205.16258015 -106 195 C-106.73347656 194.360625 -107.46695313 193.72125 -108.22265625 193.0625 C-127.28055173 175.31546506 -139.93719961 147.36382117 -141.11669922 121.43457031 C-142.21124219 89.49134106 -135.57177832 61.98247785 -115 37 C-114.24074219 36.07574219 -113.48148438 35.15148437 -112.69921875 34.19921875 C-85.22263109 2.40552402 -40.63898664 -11.19829854 0 0 Z " fill="#379EA1" transform="translate(663,509)"/>
<path d="M0 0 C16.355625 -0.474375 32.71125 -0.94875 49.5625 -1.4375 C54.6782251 -1.64689209 59.7939502 -1.85628418 65.06469727 -2.07202148 C103.27967406 -3.01263669 103.27967406 -3.01263669 115.23301125 8.17904282 C124.53847835 17.81093223 127.47101957 28.83217543 127.50114441 42.00709534 C127.38557888 45.3198162 127.20652424 48.61949479 126.98730469 51.92669678 C126.83578739 54.63959755 126.79975671 57.34899745 126.76659966 60.06554317 C126.72075075 63.3461486 126.60781934 66.62355633 126.4921875 69.90234375 C126.45616425 71.10132797 126.42014099 72.30031219 126.38302612 73.53562927 C125.85959355 81.53469306 123.93969545 85.65409934 118 91 C117.02363281 92.01080669 116.05191759 93.02613726 115.0859375 94.046875 C114.19132812 94.93890625 113.29671875 95.8309375 112.375 96.75 C111.02535156 98.10351562 111.02535156 98.10351562 109.6484375 99.484375 C108.77445313 100.31453125 107.90046875 101.1446875 107 102 C106.27029495 102.70251892 105.5405899 103.40503784 104.78877258 104.12884521 C101.20958095 106.53033955 99.01983359 106.48372942 94.73120117 106.45410156 C93.66209 106.45497772 93.66209 106.45497772 92.57138062 106.45587158 C90.22807194 106.4530967 87.8860537 106.42203554 85.54296875 106.390625 C83.91344396 106.38316043 82.28391016 106.37746851 80.65437317 106.37347412 C76.37487812 106.35823466 72.09593002 106.31896791 67.81665039 106.2746582 C62.67719067 106.22645638 57.53754761 106.20816339 52.39792633 106.18484497 C44.59823769 106.1461153 36.79974804 106.06945113 29 106 C29 127.12 29 148.24 29 170 C19.43 170 9.86 170 0 170 C0 113.9 0 57.8 0 0 Z " fill="#34414F" transform="translate(1095,639)"/>
<path d="M0 0 C1.4567445 -0.0118515 2.91346953 -0.02635893 4.37016296 -0.04336548 C7.41114392 -0.06700745 10.44918704 -0.05393605 13.48999023 -0.01513672 C17.35275272 0.03055842 21.20677164 -0.02392391 25.06869698 -0.10367966 C51.14430589 -0.56990054 51.14430589 -0.56990054 58.32987976 5.35067749 C60.2334791 7.29624145 61.89707315 9.36123115 63.41000366 11.62446594 C64.82464582 13.53975655 64.82464582 13.53975655 67.08633423 15.16691589 C71.25529676 18.51827821 73.5103892 20.94129084 74.65739441 26.26696777 C75.09588723 31.0801998 75.02422351 35.88726319 74.94921875 40.71484375 C74.95020389 42.4988596 74.95416059 44.28287603 74.9609375 46.06687927 C74.96516569 49.79364607 74.93809592 53.51845471 74.88769531 57.24487305 C74.82517499 62.00578527 74.83400667 66.763317 74.865448 71.52443027 C74.88302624 75.20428129 74.8661997 78.88335659 74.83880615 82.5631237 C74.82915425 84.31766082 74.82920775 86.07228069 74.8394165 87.82681465 C74.8920869 103.1932059 74.8920869 103.1932059 70.4777832 108.31054688 C69.28889353 109.37316805 68.07123383 110.40466901 66.82421875 111.3984375 C65.6592616 112.58277589 64.50516304 113.7779944 63.3671875 114.98828125 C62.25129603 116.1067648 61.13282464 117.22268066 60.01171875 118.3359375 C59.44001953 118.91150391 58.86832031 119.48707031 58.27929688 120.08007812 C53.76671075 124.58205888 51.94503321 125.51666143 45.63720703 125.68652344 C43.6834465 125.73966705 43.6834465 125.73966705 41.69021606 125.79388428 C36.48546013 125.90811264 31.28021007 125.99038 26.07455635 126.05050278 C22.12991342 126.09652544 18.18827203 126.16354254 14.24511719 126.28320312 C10.42341909 126.39873546 6.60440267 126.45852647 2.78106308 126.4810257 C1.33366832 126.49865667 -0.11363966 126.53516474 -1.56002426 126.59203339 C-8.85003365 126.86490317 -14.65629345 126.49553812 -20.33702278 121.57452774 C-22.73583382 119.27730539 -24.95490042 116.86943966 -27.17578125 114.3984375 C-28.51843678 113.09480939 -29.86948915 111.79959514 -31.23828125 110.5234375 C-35.45061281 106.42900835 -37.50402501 102.81842912 -37.59347534 96.81843567 C-37.58897369 96.10555893 -37.58447205 95.39268219 -37.57983398 94.65820312 C-37.58669724 93.89497238 -37.59356049 93.13174164 -37.60063171 92.34538269 C-37.61887902 89.83162647 -37.61506576 87.31849551 -37.609375 84.8046875 C-37.61393741 83.05261024 -37.61924316 81.30053478 -37.6252594 79.54846191 C-37.63418612 75.88005289 -37.63177195 72.21186164 -37.62182617 68.54345703 C-37.61032973 63.84568697 -37.63056023 59.14866782 -37.65974331 54.4509964 C-37.67809974 50.83411904 -37.67781411 47.21742189 -37.67210579 43.60050964 C-37.67195254 41.8685755 -37.67799952 40.13662916 -37.69039726 38.40473938 C-37.70529755 35.98223894 -37.69463905 33.56112918 -37.67749023 31.13867188 C-37.6871582 30.42579514 -37.69682617 29.7129184 -37.70678711 28.97843933 C-37.63563107 24.17134416 -36.52217601 21.80921008 -33.17578125 18.3984375 C-31.34799632 16.69436727 -29.44487104 15.12340818 -27.5188446 13.53164673 C-25.11091785 11.43911278 -25.11091785 11.43911278 -23.09455872 8.88778687 C-16.18583353 0.758189 -10.30739907 -0.12541891 0 0 Z " fill="#344150" transform="translate(1857.17578125,683.6015625)"/>
<path d="M0 0 C3.68782902 -0.06151733 7.37056004 -0.14936716 11.05577469 -0.30358219 C38.1553531 -1.40977423 38.1553531 -1.40977423 45.83293533 5.63866329 C47.96864312 8.00779776 49.84590386 10.46637023 51.63451004 13.10532284 C53.68393595 15.82209318 56.26482424 17.69462606 58.91856766 19.80750179 C60.14937274 22.26911197 60.03900743 23.87247173 60.03209305 26.62439632 C60.0319722 27.63929134 60.03185135 28.65418636 60.03172684 29.69983578 C60.02661087 30.76919369 60.0214949 31.8385516 60.01622391 32.94031429 C60.01521683 33.92121029 60.01420975 34.90210629 60.01317215 35.9127264 C60.00792988 39.58599671 59.99396868 43.2592504 59.98106766 46.93250179 C59.96044266 55.14125179 59.93981766 63.35000179 59.91856766 71.80750179 C33.51856766 71.80750179 7.11856766 71.80750179 -20.08143234 71.80750179 C-20.58408971 89.39611211 -20.58408971 89.39611211 -15.08143234 97.80750179 C-8.6964161 103.24292316 -1.20401413 102.4121217 6.82091141 102.41687679 C8.26824149 102.43187409 9.71555456 102.44860448 11.16284561 102.46698666 C14.95215559 102.51049941 18.74123477 102.53062314 22.53075027 102.54572201 C26.40560335 102.56535156 30.28020927 102.60731475 34.15489578 102.64734554 C41.74275096 102.72247343 49.33041148 102.77080277 56.91856766 102.80750179 C56.58856766 110.06750179 56.25856766 117.32750179 55.91856766 124.80750179 C45.69521653 125.05697947 35.47391732 125.25835893 25.24819946 125.37743568 C20.49881686 125.43461571 15.7516411 125.51203437 11.00352859 125.63733578 C6.41268712 125.75771523 1.8239541 125.82280044 -2.76834488 125.85115147 C-4.51156667 125.87132731 -6.25468534 125.9107289 -7.99699783 125.97053242 C-23.04406928 126.46601313 -23.04406928 126.46601313 -29.3875351 121.04093552 C-31.76094182 118.74841708 -33.92458244 116.30303732 -36.08143234 113.80750179 C-37.77674856 112.127596 -39.48289291 110.45843861 -41.20643234 108.80750179 C-45.85646599 104.17450123 -47.39940351 101.07514425 -47.64173508 94.54822445 C-47.69277138 93.44236744 -47.69277138 93.44236744 -47.74483871 92.31416988 C-48.04142134 85.46232907 -48.20570919 78.60505842 -48.33375072 71.74820042 C-48.42033422 67.15384333 -48.54650046 62.56902777 -48.77552414 57.97937679 C-50.3978502 24.68108681 -50.3978502 24.68108681 -40.9908762 14.05576038 C-28.08433704 0.64693296 -17.5662605 0.28827969 0 0 Z " fill="#34414F" transform="translate(1377.0814323425293,684.1924982070923)"/>
<path d="M0 0 C6.93 0 13.86 0 21 0 C24.375 9 24.375 9 24 13 C24.74443359 12.34644531 24.74443359 12.34644531 25.50390625 11.6796875 C26.18324219 11.08414063 26.86257813 10.48859375 27.5625 9.875 C28.22378906 9.29492188 28.88507813 8.71484375 29.56640625 8.1171875 C30.77103516 7.06917969 30.77103516 7.06917969 32 6 C32.68968872 5.26244728 32.68968872 5.26244728 33.39331055 4.50999451 C37.62289797 0.28239467 40.8299236 -0.71592859 46.75376892 -0.85932922 C48.20403221 -0.84581673 48.20403221 -0.84581673 49.68359375 -0.83203125 C50.69792984 -0.84014328 51.71226593 -0.84825531 52.75733948 -0.85661316 C54.894616 -0.86504798 57.03200057 -0.85827062 59.16918945 -0.8371582 C62.42546015 -0.81259084 65.67577723 -0.85728029 68.93164062 -0.90820312 C71.01562995 -0.90783259 73.0996233 -0.9034095 75.18359375 -0.89453125 C76.14841171 -0.91183792 77.11322968 -0.92914459 78.10728455 -0.94697571 C82.8442564 -0.84974908 86.12111549 -0.42271174 89.80102539 2.6809082 C90.41932724 3.32626022 91.03762909 3.97161224 91.67466736 4.63652039 C93.58348613 6.57665324 95.40413836 8.10478762 97.55812073 9.73835754 C103.3100944 14.35317501 107.96760927 18.69954698 109.22015381 26.22235107 C109.79140669 32.45233431 109.57828383 38.65511979 109.3671875 44.8984375 C109.34102741 47.1876516 109.32112179 49.47694488 109.30715942 51.76626587 C109.25407712 57.74916657 109.11690911 63.72719596 108.96130371 69.70819092 C108.8172597 75.82822784 108.75397288 81.94906372 108.68359375 88.0703125 C108.53410644 100.04934381 108.28818587 112.02350203 108 124 C99.09 124 90.18 124 81 124 C80.99589111 121.24446777 80.99178223 118.48893555 80.98754883 115.64990234 C80.97034465 106.54143111 80.9258317 97.43324041 80.86790943 88.32494164 C80.83363163 82.80299838 80.80852817 77.28133203 80.80444336 71.75927734 C80.80016218 66.4292477 80.77171388 61.09984279 80.72656822 55.77000809 C80.71358753 53.73751083 80.70928755 51.70493884 80.71384621 49.67240524 C80.71874805 46.82307387 80.69267815 43.9755713 80.65942383 41.12646484 C80.67236229 39.86842041 80.67236229 39.86842041 80.68556213 38.58496094 C80.57058876 32.70109611 79.24963915 30.1006661 75 26 C69.30813943 22.71825983 62.34796221 23.62801358 55.96313477 23.62939453 C53.70446706 23.62503277 51.44777421 23.58871139 49.18945312 23.55078125 C41.59897206 23.49255705 35.4963312 23.61308553 29 28 C26.87902122 30.12097878 27.81377783 34.89817802 27.79467773 37.83422852 C27.77982834 39.22433136 27.77982834 39.22433136 27.76467896 40.64251709 C27.73296299 43.72128704 27.7082668 46.80007245 27.68359375 49.87890625 C27.66303293 52.00740471 27.6420367 54.13589901 27.62062073 56.26438904 C27.56530996 61.87857704 27.51594053 67.49280243 27.46777344 73.10705566 C27.41762399 78.8311701 27.36190378 84.55522993 27.30664062 90.27929688 C27.19894896 101.51948644 27.09804309 112.75972213 27 124 C18.09 124 9.18 124 0 124 C0 83.08 0 42.16 0 0 Z " fill="#354250" transform="translate(1958,685)"/>
<path d="M0 0 C4.57106598 0.20728131 9.14442899 0.29648976 13.71887207 0.39672852 C22.64146926 0.60912604 31.55401587 0.94882905 40.46887207 1.37329102 C40.31912678 2.79667432 40.16695971 4.21980296 40.01379395 5.64282227 C39.88708313 6.83161987 39.88708313 6.83161987 39.7578125 8.04443359 C39.3653221 11.20790294 38.70027637 14.27213678 37.96887207 17.37329102 C37.71105957 18.48704102 37.45324707 19.60079102 37.18762207 20.74829102 C36.46887207 23.37329102 36.46887207 23.37329102 35.46887207 24.37329102 C33.55721957 24.47586296 31.64180952 24.50900957 29.72741699 24.51513672 C28.49911667 24.52217117 27.27081635 24.52920563 26.0052948 24.53645325 C25.34462194 24.53826914 24.68394909 24.54008503 24.00325584 24.54195595 C21.93946977 24.54910647 19.87592355 24.5647627 17.81221008 24.58329773 C11.94315928 24.63582888 6.07423679 24.6837355 0.20495605 24.69921875 C-3.38206522 24.70930321 -6.9684882 24.7386413 -10.55527306 24.78053856 C-11.92234457 24.79285066 -13.28950061 24.7979694 -14.65662575 24.79574013 C-16.57164432 24.79338637 -18.48663918 24.8177497 -20.40148926 24.84326172 C-22.03577629 24.85206108 -22.03577629 24.85206108 -23.70307922 24.86103821 C-27.2205363 25.49816559 -28.40507095 26.53994424 -30.53112793 29.37329102 C-30.93305266 32.18380881 -31.09231449 34.51405539 -31.03112793 37.31079102 C-31.05433105 38.36556641 -31.05433105 38.36556641 -31.07800293 39.44165039 C-31.05347692 42.71280689 -30.64322979 45.14937022 -29.17687988 48.07836914 C-25.04357341 51.66359391 -20.96454465 51.02451388 -15.66784668 50.93969727 C-14.06982964 50.94814919 -14.06982964 50.94814919 -12.43952942 50.95677185 C-9.03211657 50.97324498 -5.62599605 50.95766856 -2.21862793 50.93579102 C1.17791034 50.91917791 4.57358668 50.91014048 7.97013855 50.92552185 C10.08261901 50.93477275 12.19528155 50.92573531 14.30757141 50.89588928 C22.24670525 50.92526517 27.00829761 52.79566067 32.92590332 58.24829102 C33.48084473 58.75875977 34.03578613 59.26922852 34.60754395 59.79516602 C35.15990723 60.31594727 35.71227051 60.83672852 36.28137207 61.37329102 C37.1389209 62.15446289 37.1389209 62.15446289 38.01379395 62.95141602 C41.95687031 66.62111811 44.26486725 69.06975086 44.75939941 74.65380859 C44.84023731 81.53241813 44.84023731 81.53241813 44.83947754 84.96240234 C44.84383793 87.16851759 44.8801412 89.37260924 44.91809082 91.57836914 C44.92396242 92.99568007 44.92792952 94.41300042 44.92980957 95.83032227 C44.93802734 97.10883057 44.94624512 98.38733887 44.95471191 99.70458984 C44.1724542 105.61161832 41.33726894 109.90488454 37.08605957 114.08422852 C36.47633301 114.68879883 35.86660645 115.29336914 35.23840332 115.91625977 C34.61320801 116.52083008 33.9880127 117.12540039 33.34387207 117.74829102 C32.71094238 118.37606445 32.0780127 119.00383789 31.42590332 119.65063477 C26.3598882 124.63060292 23.79465968 125.52035074 16.62268066 125.48681641 C15.81284225 125.48696243 15.00300385 125.48710846 14.16862488 125.48725891 C11.48482611 125.48656079 8.80109626 125.47877306 6.11730957 125.47094727 C4.2592879 125.46908273 2.40126574 125.46765899 0.54324341 125.46665955 C-4.35255281 125.46283717 -9.24831948 125.45300925 -14.144104 125.44195557 C-19.13769124 125.43173545 -24.13128325 125.42716064 -29.12487793 125.42211914 C-38.92697427 125.41138675 -48.72904864 125.39431365 -58.53112793 125.37329102 C-57.54814731 117.9277357 -56.55825007 110.61301295 -54.53112793 103.37329102 C-53.72790604 103.36742477 -52.92468414 103.36155853 -52.09712219 103.35551453 C-44.51965658 103.29755985 -36.94251874 103.2254676 -29.36534595 103.1375761 C-25.47002553 103.09288878 -21.57480929 103.05362928 -17.67932129 103.02685547 C-13.91844572 103.00080577 -10.15797143 102.96039221 -6.39734459 102.91010475 C-4.96411832 102.89344718 -3.53082265 102.88192596 -2.0975132 102.87567711 C-0.08674712 102.8660249 1.92389169 102.8362545 3.93444824 102.80566406 C5.0780632 102.794561 6.22167816 102.78345795 7.39994812 102.77201843 C10.81250039 102.32864539 12.70565205 101.38629149 15.46887207 99.37329102 C17.96519933 95.9870344 17.76822653 92.54158207 17.78137207 88.43579102 C17.80650879 86.62788086 17.80650879 86.62788086 17.83215332 84.78344727 C17.43887687 81.0917232 16.76144796 79.26618023 14.46887207 76.37329102 C11.47457009 74.5187055 9.2302538 74.12930626 5.73547363 74.1496582 C4.8006012 74.14915466 3.86572876 74.14865112 2.90252686 74.14813232 C1.89832703 74.15540344 0.8941272 74.16267456 -0.14050293 74.17016602 C-2.27852985 74.15961511 -4.41655109 74.14785827 -6.55456543 74.13500977 C-9.91649567 74.12470913 -13.27763243 74.12327018 -16.63952637 74.14331055 C-19.89053035 74.15812694 -23.13962139 74.13555955 -26.39050293 74.10766602 C-27.38660583 74.12303406 -28.38270874 74.1384021 -29.40899658 74.15423584 C-36.51848536 74.05584768 -40.38521472 72.22839026 -45.53112793 67.37329102 C-46.06602341 66.88481689 -46.60091888 66.39634277 -47.15202332 65.89306641 C-48.62565968 64.50583815 -50.04853964 63.0652881 -51.46862793 61.62329102 C-52.1888916 60.90206055 -52.1888916 60.90206055 -52.92370605 60.16625977 C-58.5013457 54.51781792 -58.3293563 48.83924989 -58.7052002 41.22192383 C-58.79566538 39.76873697 -58.92406334 38.31728684 -59.09484863 36.87133789 C-60.17553561 27.49597104 -57.98684303 20.67191952 -52.33091736 13.07278442 C-38.11745575 -3.28354413 -19.93022898 -1.00124708 0 0 Z " fill="#389DA0" transform="translate(2264.5311279296875,683.626708984375)"/>
<path d="M0 0 C1.07461739 0.00539291 1.07461739 0.00539291 2.17094421 0.01089478 C2.92211517 0.01074875 3.67328613 0.01060272 4.44721985 0.01045227 C6.94166404 0.01115153 9.43603448 0.01894452 11.9304657 0.02676392 C13.65539509 0.02862805 15.38032501 0.03005197 17.10525513 0.03105164 C21.65418448 0.03487719 26.20308211 0.04470779 30.7519989 0.05575562 C35.39025951 0.06596893 40.02852522 0.07054908 44.66679382 0.07559204 C53.77422967 0.08633003 62.88164192 0.1034069 71.98905945 0.12442017 C71.84659595 2.00618874 71.69993015 3.88763939 71.55155945 5.76895142 C71.42974304 7.34060059 71.42974304 7.34060059 71.3054657 8.94400024 C70.10524733 21.00823229 70.10524733 21.00823229 67.98905945 23.12442017 C66.04148117 23.22704543 64.090209 23.26014097 62.13993835 23.26626587 C60.88838959 23.27330032 59.63684082 23.28033478 58.34736633 23.2875824 C57.33772261 23.29030623 57.33772261 23.29030623 56.30768204 23.2930851 C54.20636678 23.3002329 52.10528746 23.3158863 50.00404358 23.33442688 C44.02837871 23.38697648 38.05284102 23.43488343 32.07695007 23.4503479 C28.42509891 23.46041946 24.77383746 23.48972302 21.12221909 23.53166771 C19.72920056 23.54399655 18.3360988 23.54909551 16.9430275 23.54686928 C14.99427857 23.5445215 13.04555249 23.5688442 11.0969696 23.59439087 C9.98745941 23.60025711 8.87794922 23.60612335 7.7348175 23.61216736 C4.89331742 23.87754951 4.89331742 23.87754951 3.13002014 25.95491028 C1.51006859 29.03521 1.62819181 31.53927348 1.67655945 34.99942017 C1.68236023 36.78992798 1.68236023 36.78992798 1.6882782 38.61660767 C1.99035225 42.13949721 2.54869781 44.89685396 3.98905945 48.12442017 C6.8910242 49.09174175 8.65769989 49.23380092 11.66899109 49.20278931 C13.09176109 49.19397484 13.09176109 49.19397484 14.54327393 49.1849823 C16.0807151 49.17240639 16.0807151 49.17240639 17.6492157 49.15957642 C19.82695479 49.16329155 22.00469101 49.16922265 24.18241882 49.17715454 C27.61049627 49.18768138 31.03649926 49.18708931 34.46440125 49.14859009 C55.97803709 48.93222402 55.97803709 48.93222402 62.23124695 53.84707642 C64.31840515 56.03726196 64.31840515 56.03726196 65.98905945 58.12442017 C66.95518699 59.09449047 67.92463823 60.0612769 68.8992157 61.02285767 C69.60948914 61.84012329 70.31976257 62.65738892 71.05155945 63.49942017 C71.78503601 64.33215454 72.51851257 65.16488892 73.2742157 66.02285767 C77.38834062 71.0647693 76.32842951 77.70065596 76.39408875 83.93496704 C76.4155884 85.46742397 76.44959622 86.99976079 76.49662781 88.53164673 C76.93279421 102.88012431 76.93279421 102.88012431 73.1101532 107.98770142 C72.09587381 109.05859754 71.05730221 110.10734662 69.98905945 111.12442017 C69.20530945 112.13504517 68.42155945 113.14567017 67.61405945 114.18692017 C66.74780945 115.15629517 65.88155945 116.12567017 64.98905945 117.12442017 C64.54666931 117.71646744 64.10427917 118.30851471 63.64848328 118.91850281 C60.41900295 122.55542437 57.91714744 123.97924773 53.06230164 124.73864746 C48.05832982 125.02733074 43.05978571 124.91206052 38.05155945 124.80801392 C36.20213196 124.79494384 34.35268008 124.78498633 32.5032196 124.77799988 C27.65615385 124.75138487 22.81057706 124.68272045 17.96409607 124.60507202 C13.01038247 124.53322016 8.05642618 124.50144167 3.1023407 124.46621704 C-6.60273743 124.39134198 -16.30671476 124.27200877 -26.01094055 124.12442017 C-26.07072624 119.09114213 -25.66995972 114.67064015 -24.57344055 109.74942017 C-24.30660461 108.52481079 -24.03976868 107.30020142 -23.7648468 106.03848267 C-23.01094055 103.12442017 -23.01094055 103.12442017 -22.01094055 102.12442017 C-20.07939797 102.0165498 -18.14394542 101.97814069 -16.20942688 101.96670532 C-14.96756119 101.95644318 -13.7256955 101.94618103 -12.44619751 101.93560791 C-11.77796778 101.93216999 -11.10973804 101.92873207 -10.42125893 101.92518997 C-8.33172683 101.91341932 -6.24240316 101.89396871 -4.1529541 101.87207031 C1.78957628 101.81041292 7.73208933 101.75651374 13.67485046 101.72305298 C17.30718539 101.70204832 20.9391471 101.66669158 24.57126808 101.62229538 C25.95343426 101.60817213 27.33566655 101.59942125 28.71790123 101.596241 C30.65887317 101.5913053 32.59976328 101.56648998 34.54057312 101.54092407 C35.64342148 101.53283722 36.74626984 101.52475037 37.88253784 101.51641846 C41.49400504 101.0607033 43.89076845 100.01559224 46.98905945 98.12442017 C49.45206081 94.42991813 49.35635028 91.52800829 49.36405945 87.24942017 C49.38855164 86.54172485 49.41304382 85.83402954 49.4382782 85.10488892 C49.45901195 81.39354759 49.11752112 79.32372079 47.09062195 76.17910767 C44.92131325 74.05818504 43.97102052 73.17157882 40.95561218 73.02676392 C40.11973572 73.03836548 39.28385925 73.04996704 38.4226532 73.06192017 C37.47406433 73.07102417 36.52547546 73.08012817 35.54814148 73.08950806 C34.00295837 73.10678955 34.00295837 73.10678955 32.42655945 73.12442017 C30.24556978 73.12557939 28.06457757 73.12419423 25.8835907 73.12051392 C22.44425424 73.1161089 19.00763434 73.12414174 15.56864929 73.1756897 C-6.00668256 73.47175449 -6.00668256 73.47175449 -12.3585968 67.73770142 C-13.61564883 66.23214281 -14.83956512 64.69755911 -16.01094055 63.12442017 C-17.12686573 62.1515115 -18.26978692 61.2078085 -19.44844055 60.31192017 C-23.02165845 57.2616122 -24.77818421 55.51126427 -25.57368469 50.77139282 C-25.81621297 46.4282465 -26.00834384 42.09875458 -26.07344055 37.74942017 C-26.08684479 36.97530792 -26.10024902 36.20119568 -26.11405945 35.40362549 C-26.2283073 19.44367962 -26.2283073 19.44367962 -20.24116516 12.97940063 C-17.84424766 10.89525722 -15.40000283 9.02151645 -12.73213196 7.29776001 C-10.14574194 5.53461243 -8.15160335 3.4001155 -6.01094055 1.12442017 C-4.32590356 -0.56061683 -2.24834171 0.00476033 0 0 Z " fill="#34404F" transform="translate(1664.0109405517578,684.8755798339844)"/>
<path d="M0 0 C1.06922447 0.01078583 1.06922447 0.01078583 2.16004944 0.02178955 C2.91136642 0.0214975 3.66268341 0.02120544 4.43676758 0.02090454 C6.9258622 0.02230046 9.41465931 0.03787376 11.90370178 0.05352783 C13.62720069 0.05725704 15.35070171 0.06010444 17.07420349 0.06210327 C21.61494275 0.06974704 26.15555448 0.08940185 30.69624329 0.11151123 C35.32787857 0.1319537 39.95953441 0.14110156 44.59120178 0.15118408 C53.68240371 0.17264708 62.7735109 0.20679194 71.86463928 0.24884033 C71.91284671 4.05521875 71.95025698 7.69218442 71.20838928 11.43243408 C71.07303772 12.13175049 70.93768616 12.83106689 70.79823303 13.55157471 C70.65514709 14.25604736 70.51206116 14.96052002 70.36463928 15.68634033 C70.22155334 16.4178833 70.07846741 17.14942627 69.93104553 17.90313721 C69.58142632 19.68619519 69.2238624 21.46769236 68.86463928 23.24884033 C67.75709793 23.25430878 67.75709793 23.25430878 66.62718201 23.2598877 C59.65335586 23.29782572 52.67991214 23.35474429 45.70642662 23.43274307 C42.12161357 23.47217634 38.53704462 23.50438471 34.95204163 23.51983643 C31.48931188 23.53503107 28.02725336 23.56952441 24.56482315 23.61714935 C22.60744187 23.63910786 20.6498711 23.64131166 18.69236755 23.64318848 C9.92428606 23.67948995 9.92428606 23.67948995 2.86463928 28.24884033 C0.2544267 31.93216626 -0.51463739 34.44213905 -0.53941345 38.93780518 C-0.55843971 40.61512222 -0.55843971 40.61512222 -0.57785034 42.32632446 C-0.5749147 43.52536407 -0.57197906 44.72440369 -0.56895447 45.95977783 C-0.57681725 47.82202499 -0.57681725 47.82202499 -0.58483887 49.72189331 C-0.59289927 53.01713566 -0.58580084 56.31196112 -0.57450867 59.60717773 C-0.57286457 61.61913126 -0.58483304 63.63051871 -0.60191345 65.64239502 C-0.63264087 69.51929038 -0.63599192 73.39527998 -0.63145447 77.27227783 C-0.64268845 78.46726898 -0.65392242 79.66226013 -0.66549683 80.89346313 C-0.61012242 87.53131823 -0.32391102 91.967995 3.86463928 97.24884033 C7.71236575 100.0806731 10.47706406 100.63373437 15.21546936 100.68121338 C16.47639908 100.70100754 17.7373288 100.7208017 19.03646851 100.74119568 C20.40236766 100.74796439 21.76826844 100.75441138 23.13417053 100.76055908 C24.53951582 100.77741458 25.9448461 100.795566 27.35015869 100.81495667 C31.03751438 100.86236884 34.72480925 100.89223459 38.41236877 100.918396 C42.17978422 100.94824616 45.94699031 100.99476108 49.71424866 101.03985596 C57.09760812 101.12578895 64.48098296 101.19317827 71.86463928 101.24884033 C71.085596 116.99371505 71.085596 116.99371505 68.86463928 124.24884033 C59.35460549 124.41140996 49.84505378 124.53559953 40.33393097 124.61152554 C35.91690813 124.64797661 31.50083953 124.69737452 27.08436584 124.7769165 C22.81785787 124.85327203 18.5522645 124.89489169 14.28512573 124.91298103 C12.66159677 124.92586276 11.03811494 124.95101911 9.41497803 124.98895073 C-4.89060815 125.3098057 -4.89060815 125.3098057 -9.97154236 120.92218018 C-11.05769176 119.72562551 -12.11423796 118.50134658 -13.13536072 117.24884033 C-14.32077622 116.08497923 -15.51606162 114.93100009 -16.72520447 113.79180908 C-17.84368802 112.67591762 -18.95960388 111.55744622 -20.07286072 110.43634033 C-20.64842712 109.86464111 -21.22399353 109.29294189 -21.81700134 108.70391846 C-26.63514675 103.87442289 -27.30090233 101.41161109 -27.4393158 94.77667236 C-27.45873734 94.00561661 -27.47815887 93.23456085 -27.49816895 92.44013977 C-27.66731298 85.30212864 -27.76377523 78.16261501 -27.83923817 71.02305794 C-27.89051705 66.23098102 -27.96471595 61.4418048 -28.0955658 56.65118408 C-28.22175981 52.01253404 -28.28770418 47.37649402 -28.31282616 42.73623276 C-28.33233647 40.97624127 -28.3725281 39.21634195 -28.43468666 37.45734024 C-28.71613938 29.09881879 -28.93912409 22.27623769 -22.98346233 15.88397026 C-20.4777866 13.50230236 -17.86321162 11.37610064 -15.13536072 9.24884033 C-13.5866604 7.88176738 -12.04314787 6.5087319 -10.51036072 5.12384033 C-9.89934509 4.60563721 -9.28832947 4.08743408 -8.65879822 3.55352783 C-5.43271799 0.79067963 -4.4057093 0.01861668 0 0 Z " fill="#35414F" transform="translate(1489.1353607177734,684.7511596679688)"/>
<path d="M0 0 C8.91 0 17.82 0 27 0 C27.11572409 19.73192758 27.20496219 39.46375938 27.25906086 59.19595623 C27.28484703 68.35788713 27.32000537 77.51960336 27.37719727 86.68139648 C27.42701969 94.66644855 27.45928801 102.65134516 27.47044247 110.63654834 C27.47696326 114.86508446 27.49229709 119.09317582 27.52865028 123.32156944 C27.56259172 127.30169266 27.57305692 131.28118799 27.56553841 135.26144218 C27.56691381 136.72196617 27.57685805 138.18251117 27.59602737 139.64291 C27.62092848 141.63785857 27.61193717 143.63314414 27.60127258 145.6282196 C27.60588155 146.74451091 27.61049051 147.86080221 27.61523914 149.01092052 C26.80504424 152.94717359 24.9794809 154.401625 22 157 C21.03876483 158.30772509 20.10484766 159.6362296 19.20703125 160.98828125 C15.18443473 166.33711566 10.90329325 171.88692214 4.0536499 173.4418335 C-6.51868147 174.90361254 -17.42064414 173.86558366 -28 173 C-28 165.41 -28 157.82 -28 150 C-17.875 149.75 -17.875 149.75 -14.71826172 149.70214844 C-13.88053223 149.6715332 -13.04280273 149.64091797 -12.1796875 149.609375 C-11.33132324 149.58842773 -10.48295898 149.56748047 -9.60888672 149.54589844 C-5.95131895 148.78056795 -3.27988248 148.01626261 -1 145 C-0.05046378 140.44387521 -0.18301157 135.86886002 -0.22705078 131.23535156 C-0.21887947 129.80619132 -0.20807675 128.37704405 -0.19483948 126.94792175 C-0.16638041 123.06991469 -0.17476225 119.19275594 -0.18970728 115.31470585 C-0.19907984 111.26136956 -0.17464364 107.20824136 -0.15377808 103.15496826 C-0.11941557 95.48038259 -0.11550365 87.8060948 -0.12250316 80.13144755 C-0.12899166 71.39382462 -0.1015775 62.65641127 -0.07130075 53.91885042 C-0.00978221 35.94581416 0.00463738 17.97314935 0 0 Z " fill="#3A9FA2" transform="translate(2153,685)"/>
<path d="M0 0 C6.6 0 13.2 0 20 0 C21.32 2.97 22.64 5.94 24 9 C24.66 10.32 25.32 11.64 26 13 C26.75925781 12.22914063 27.51851562 11.45828125 28.30078125 10.6640625 C29.30455366 9.65090904 30.30846732 8.63789552 31.3125 7.625 C31.81201172 7.11710938 32.31152344 6.60921875 32.82617188 6.0859375 C38.79115845 0.0814477 38.79115845 0.0814477 43.36987305 -0.22705078 C44.75052878 -0.22673499 46.13121039 -0.21548717 47.51171875 -0.1953125 C48.23994339 -0.1924826 48.96816803 -0.18965271 49.71846008 -0.18673706 C52.04164137 -0.17555257 54.36443547 -0.15045166 56.6875 -0.125 C58.2636663 -0.11496794 59.83983865 -0.10584248 61.41601562 -0.09765625 C65.27761251 -0.07732135 69.13837345 -0.03817094 73 0 C72.34 7.59 71.68 15.18 71 23 C69.09476563 23.02578125 67.18953125 23.0515625 65.2265625 23.078125 C62.69268629 23.13443336 60.15883301 23.19178006 57.625 23.25 C56.37332031 23.26417969 55.12164063 23.27835938 53.83203125 23.29296875 C44.92678698 23.52609033 37.56017662 24.43822128 30.40611267 30.02598572 C27.14289578 34.05940185 27.28836806 36.87963091 27.34057617 41.92114258 C27.32485062 43.25360016 27.32485062 43.25360016 27.30880737 44.61297607 C27.28007362 47.54051717 27.28634694 50.46687449 27.29296875 53.39453125 C27.27985271 55.42764263 27.26454878 57.46074098 27.24714661 59.49382019 C27.2072729 64.83843857 27.1971046 70.18271624 27.19311523 75.52746582 C27.18378832 80.98391063 27.14637751 86.44015489 27.11132812 91.89648438 C27.04672774 102.59769405 27.01610372 113.29860733 27 124 C18.09 124 9.18 124 0 124 C0 83.08 0 42.16 0 0 Z " fill="#354250" transform="translate(1244,685)"/>
<path d="M0 0 C8.91 0 17.82 0 27 0 C27 40.92 27 81.84 27 124 C18.09 124 9.18 124 0 124 C0 83.08 0 42.16 0 0 Z " fill="#364251" transform="translate(1585,685)"/>
<path d="M0 0 C8.91 0 17.82 0 27 0 C27 40.92 27 81.84 27 124 C18.09 124 9.18 124 0 124 C0 83.08 0 42.16 0 0 Z " fill="#34414F" transform="translate(1765,685)"/>
<path d="M0 0 C2.88941558 0.55206091 5.59934439 0.51565266 8.53515625 0.484375 C8.63462951 6.15855903 8.70690874 11.8322265 8.75488281 17.50708008 C8.77489868 19.43425345 8.80212008 21.36136686 8.83691406 23.28833008 C8.88587666 26.07127752 8.90822542 28.85341656 8.92578125 31.63671875 C8.94642639 32.48709213 8.96707153 33.33746552 8.98834229 34.21360779 C8.99057671 40.27936729 7.77139201 45.28879716 4.53515625 50.484375 C0.2480861 53.61310029 -3.36980002 53.84711892 -8.58984375 53.734375 C-10.38808594 53.71117187 -10.38808594 53.71117187 -12.22265625 53.6875 C-14.81901308 53.52483668 -16.9949839 53.24622232 -19.46484375 52.484375 C-19.46484375 50.504375 -19.46484375 48.524375 -19.46484375 46.484375 C-18.27246094 46.51917969 -17.08007812 46.55398438 -15.8515625 46.58984375 C-14.28517033 46.61798253 -12.71876294 46.6452826 -11.15234375 46.671875 C-10.36666016 46.69701172 -9.58097656 46.72214844 -8.77148438 46.74804688 C-8.01416016 46.75771484 -7.25683594 46.76738281 -6.4765625 46.77734375 C-5.78006592 46.7930542 -5.08356934 46.80876465 -4.3659668 46.82495117 C-1.88145369 46.37986375 -1.00622128 45.44137821 0.53515625 43.484375 C0.89581935 41.43073894 0.89581935 41.43073894 0.72265625 39.296875 C0.66078125 38.03875 0.59890625 36.780625 0.53515625 35.484375 C-0.24859375 35.814375 -1.03234375 36.144375 -1.83984375 36.484375 C-6.89517933 37.87895033 -12.47791286 38.96559893 -17.37109375 36.5390625 C-20.69152758 33.95107731 -22.27395246 31.43791951 -23.46484375 27.484375 C-23.79423083 24.52172122 -23.83495227 21.58828517 -23.83984375 18.609375 C-23.86433594 17.83207031 -23.88882812 17.05476562 -23.9140625 16.25390625 C-23.94302018 10.5106326 -22.76712614 7.19933395 -19.46484375 2.484375 C-13.94303153 -1.69065375 -6.56987408 -1.37436352 0 0 Z " fill="#87898F" transform="translate(1995.46484375,876.515625)"/>
<path d="M0 0 C1.98 0 3.96 0 6 0 C6.33 5.61 6.66 11.22 7 17 C7.99 16.34 8.98 15.68 10 15 C12.7421875 14.69921875 12.7421875 14.69921875 15.875 14.6875 C17.41800781 14.66236328 17.41800781 14.66236328 18.9921875 14.63671875 C23.27766838 15.15431579 25.92787862 16.77471842 28.75 20 C32.81690614 26.50704983 31.82003234 37.38328249 30.50390625 44.79296875 C29.49567492 47.82905518 28.36433603 49.71706518 25.83203125 51.68359375 C22.30718569 53.3220392 19.74574143 53.29844482 15.875 53.1875 C14.65554688 53.16042969 13.43609375 53.13335938 12.1796875 53.10546875 C11.13039063 53.07066406 10.08109375 53.03585937 9 53 C8.01 53 7.02 53 6 53 C4.02 53 2.04 53 0 53 C0 35.51 0 18.02 0 0 Z " fill="#83868B" transform="translate(1171,861)"/>
<path d="M0 0 C24 0 24 0 32 3 C35.41782466 6.84336409 35.40531924 10.41966618 35.375 15.4375 C35.38660156 17.35369141 35.38660156 17.35369141 35.3984375 19.30859375 C34.96104353 23.36092025 34.34957218 25.66744354 32 29 C26.44559515 32.37509696 21.43030747 32.37486974 15.0625 32.1875 C10.5765625 32.0946875 10.5765625 32.0946875 6 32 C6 38.6 6 45.2 6 52 C4.02 52 2.04 52 0 52 C0 34.84 0 17.68 0 0 Z " fill="#818389" transform="translate(1407,862)"/>
<path d="M0 0 C3.54899798 1.75933233 5.96182067 4.20416053 7.26953125 7.96484375 C8.75759881 16.12910632 8.43064884 24.69311851 5.9453125 32.609375 C3.97488374 35.36053969 1.83894958 36.14656668 -1.296875 37.34375 C-4.08654003 37.65309348 -6.58167478 37.80977913 -9.359375 37.78125 C-10.40061523 37.8112207 -10.40061523 37.8112207 -11.46289062 37.84179688 C-14.97903037 37.83845771 -17.13446644 37.44075321 -20.16796875 35.62890625 C-24.95523361 30.4902825 -24.6621287 25.09708754 -24.671875 18.40625 C-24.69636719 17.52517578 -24.72085937 16.64410156 -24.74609375 15.73632812 C-24.77135408 10.11590366 -24.19433222 6.70012283 -20.296875 2.34375 C-14.59086461 -2.13954388 -6.79908557 -1.94259588 0 0 Z " fill="#84878C" transform="translate(1640.296875,876.65625)"/>
<path d="M0 0 C2.31 0 4.62 0 7 0 C8.6640625 1.92578125 8.6640625 1.92578125 10 5 C10.69286615 6.43217567 11.38843012 7.86304773 12.0859375 9.29296875 C12.85157664 10.92325208 13.61452897 12.55479952 14.375 14.1875 C17.48666583 20.84539188 20.71173485 27.4234697 24 34 C31.92 17.665 31.92 17.665 40 1 C42.64 1 45.28 1 48 1 C48 17.83 48 34.66 48 52 C46.02 52 44.04 52 42 52 C41.67 39.46 41.34 26.92 41 14 C36.76442408 22.8395977 36.76442408 22.8395977 32.53344727 31.68139648 C32.00807373 32.77524658 31.4827002 33.86909668 30.94140625 34.99609375 C30.40201416 36.12200928 29.86262207 37.2479248 29.30688477 38.40795898 C28 41 28 41 27 42 C24.66702567 42.04092937 22.33294775 42.04241723 20 42 C18.01792408 37.8972321 16.03983829 33.79255305 14.0625 29.6875 C13.49853516 28.52025391 12.93457031 27.35300781 12.35351562 26.15039062 C11.81533203 25.03212891 11.27714844 23.91386719 10.72265625 22.76171875 C10.22515869 21.73006592 9.72766113 20.69841309 9.21508789 19.63549805 C8 17 8 17 7 14 C6.67 26.54 6.34 39.08 6 52 C4.02 52 2.04 52 0 52 C0 34.84 0 17.68 0 0 Z " fill="#83858B" transform="translate(1714,862)"/>
<path d="M0 0 C5.094375 -0.020625 10.18875 -0.04125 15.4375 -0.0625 C17.04681396 -0.071604 18.65612793 -0.08070801 20.31420898 -0.09008789 C21.57048096 -0.09258545 22.82675293 -0.09508301 24.12109375 -0.09765625 C26.06133423 -0.10551147 26.06133423 -0.10551147 28.04077148 -0.11352539 C31 0 31 0 32 1 C32.08790975 3.29151417 32.10694038 5.58572524 32.09765625 7.87890625 C32.09515869 9.13517822 32.09266113 10.3914502 32.09008789 11.68579102 C32.08098389 13.29510498 32.07187988 14.90441895 32.0625 16.5625 C32.041875 21.656875 32.02125 26.75125 32 32 C21.44 32 10.88 32 0 32 C0 21.44 0 10.88 0 0 Z " fill="#3D9EA1" transform="translate(2093,777)"/>
<path d="M0 0 C2.97 0 5.94 0 9 0 C11.40535413 6.76177199 13.80781132 13.5245681 16.20825195 20.28808594 C17.02529207 22.58910457 17.84299644 24.88988745 18.66137695 27.19042969 C19.83719569 30.49612749 21.01062741 33.80266418 22.18359375 37.109375 C22.55028671 38.13867126 22.91697968 39.16796753 23.29478455 40.22845459 C23.6350618 41.18914856 23.97533905 42.14984253 24.32592773 43.13964844 C24.6257103 43.98348083 24.92549286 44.82731323 25.23435974 45.69671631 C25.92838579 47.78456221 26.50079067 49.85828002 27 52 C24.69 52 22.38 52 20 52 C19.32739649 50.23141309 18.66211605 48.46003984 18 46.6875 C17.62875 45.70136719 17.2575 44.71523438 16.875 43.69921875 C16 41 16 41 16 38 C8.74 38.33 1.48 38.66 -6 39 C-7.65 43.29 -9.3 47.58 -11 52 C-12.98 52 -14.96 52 -17 52 C-16.41233728 46.56523116 -15.07064425 41.86791277 -13.1640625 36.7578125 C-12.88404388 35.99000458 -12.60402527 35.22219666 -12.31552124 34.43112183 C-11.42508168 31.99334583 -10.52541223 29.55910795 -9.625 27.125 C-8.73368607 24.69735505 -7.84431946 22.26900788 -6.9559021 19.84030151 C-6.40480801 18.33572312 -5.85175067 16.83186167 -5.29629517 15.32888794 C-3.42674473 10.25146139 -1.69167366 5.13952591 0 0 Z " fill="#83868C" transform="translate(1112,862)"/>
<path d="M0 0 C0.02465746 4.1117256 0.04283959 8.22342278 0.05493164 12.33520508 C0.0599708 13.73495228 0.06680216 15.1346942 0.07543945 16.53442383 C0.0875232 18.54245777 0.09269807 20.55052957 0.09765625 22.55859375 C0.10551147 24.37315063 0.10551147 24.37315063 0.11352539 26.22436523 C0 29 0 29 -1 30 C-3.14386657 30.15858842 -5.29266838 30.25129298 -7.44140625 30.31640625 C-9.39916992 30.37924805 -9.39916992 30.37924805 -11.39648438 30.44335938 C-12.7851533 30.48317608 -14.17382522 30.52288825 -15.5625 30.5625 C-16.95509183 30.60567989 -18.34767028 30.649294 -19.74023438 30.69335938 C-23.16002549 30.79985806 -26.57999896 30.90047056 -30 31 C-30 21.76 -30 12.52 -30 3 C-24.5240625 2.2575 -24.5240625 2.2575 -18.9375 1.5 C-17.23194946 1.26506836 -17.23194946 1.26506836 -15.49194336 1.02539062 C-14.57550049 0.90357422 -13.65905762 0.78175781 -12.71484375 0.65625 C-11.78792725 0.53056641 -10.86101074 0.40488281 -9.90600586 0.27539062 C-6.59080387 -0.03877789 -3.32808247 -0.04343338 0 0 Z " fill="#394552" transform="translate(1794,633)"/>
<path d="M0 0 C0 9.57 0 19.14 0 29 C-10.125 30.125 -10.125 30.125 -14.47265625 30.09765625 C-15.30289307 30.09515869 -16.13312988 30.09266113 -16.98852539 30.09008789 C-18.00293701 30.08098389 -19.01734863 30.07187988 -20.0625 30.0625 C-23.341875 30.041875 -26.62125 30.02125 -30 30 C-30 21.09 -30 12.18 -30 3 C-26.90625 2.505 -23.8125 2.01 -20.625 1.5 C-19.67189941 1.34337891 -18.71879883 1.18675781 -17.73681641 1.02539062 C-16.94968262 0.90357422 -16.16254883 0.78175781 -15.3515625 0.65625 C-14.56604004 0.53056641 -13.78051758 0.40488281 -12.97119141 0.27539062 C-8.66494422 -0.12374223 -4.32470483 0 0 0 Z " fill="#364251" transform="translate(1614,633)"/>
<path d="M0 0 C0 9.57 0 19.14 0 29 C-7.36354929 29.61362911 -14.41318294 30.14292882 -21.75 30.0625 C-24.4725 30.041875 -27.195 30.02125 -30 30 C-30 21.09 -30 12.18 -30 3 C-24.8025 2.2575 -24.8025 2.2575 -19.5 1.5 C-18.42427734 1.34337891 -17.34855469 1.18675781 -16.24023438 1.02539062 C-15.36689453 0.90357422 -14.49355469 0.78175781 -13.59375 0.65625 C-12.71396484 0.53056641 -11.83417969 0.40488281 -10.92773438 0.27539062 C-7.30001306 -0.06584267 -3.64373463 0 0 0 Z " fill="#389D9F" transform="translate(2182,633)"/>
<path d="M0 0 C3.25983476 2.93385128 5.11095276 5.08285829 6.5 9.25 C6.5 12.88 6.5 16.51 6.5 20.25 C-1.75 20.25 -10 20.25 -18.5 20.25 C-17.84 23.22 -17.18 26.19 -16.5 29.25 C-13.41651718 30.0208707 -11.44762714 30.37081536 -8.390625 30.34765625 C-7.25947266 30.34282227 -7.25947266 30.34282227 -6.10546875 30.33789062 C-5.32816406 30.32951172 -4.55085938 30.32113281 -3.75 30.3125 C-2.56083984 30.30573242 -2.56083984 30.30573242 -1.34765625 30.29882812 C0.60159508 30.28708565 2.55080738 30.26915146 4.5 30.25 C4.5 32.23 4.5 34.21 4.5 36.25 C1.12529496 36.36689626 -2.2488843 36.43747934 -5.625 36.5 C-6.57632813 36.53351562 -7.52765625 36.56703125 -8.5078125 36.6015625 C-14.36634689 36.68293103 -17.92498029 36.31343603 -22.5 32.25 C-25.45670684 27.81493973 -24.86825315 23.65618938 -24.875 18.4375 C-24.89949219 17.45201172 -24.92398438 16.46652344 -24.94921875 15.45117188 C-24.97366013 9.38563561 -24.56465282 5.8496711 -20.5 1.25 C-14.47948869 -3.15525218 -6.54026427 -3.27013214 0 0 Z " fill="#84878C" transform="translate(2093.5,877.75)"/>
<path d="M0 0 C3.06303578 -0.08115993 6.12390815 -0.14057409 9.1875 -0.1875 C10.48397461 -0.22520508 10.48397461 -0.22520508 11.80664062 -0.26367188 C16.69054544 -0.31980871 20.07963204 -0.26570457 24 3 C26.48360441 6.72540662 26.2315867 8.63062973 26.1953125 13.07421875 C26.1924826 13.7580513 26.18965271 14.44188385 26.18673706 15.1464386 C26.17555684 17.32697165 26.15045691 19.50709145 26.125 21.6875 C26.11496738 23.16731177 26.10584202 24.64712999 26.09765625 26.12695312 C26.07562481 29.751436 26.04111002 33.37567766 26 37 C24.02 37 22.04 37 20 37 C20 36.34 20 35.68 20 35 C19.4946875 35.32097656 18.989375 35.64195312 18.46875 35.97265625 C15.09104478 37.37825194 12.14927412 37.37643931 8.5 37.4375 C6.53546875 37.49744141 6.53546875 37.49744141 4.53125 37.55859375 C1 37 1 37 -1.40625 34.59765625 C-4.03017182 30.32092093 -4.52683832 26.99059568 -4 22 C-2.70797554 18.87194078 -1.86998315 17.46057932 1.125 15.875 C4.72427408 14.77956876 8.09322301 14.78246296 11.8125 14.875 C12.85180664 14.88853516 12.85180664 14.88853516 13.91210938 14.90234375 C15.60822395 14.92573843 17.30415871 14.96160359 19 15 C18.87625 13.700625 18.7525 12.40125 18.625 11.0625 C18.55539062 10.33160156 18.48578125 9.60070312 18.4140625 8.84765625 C18.27742188 8.23792969 18.14078125 7.62820313 18 7 C14.81175432 5.40587716 11.37103338 5.89825265 7.875 5.9375 C6.74384766 5.94426758 6.74384766 5.94426758 5.58984375 5.95117188 C3.72652873 5.96296501 1.86325445 5.98090058 0 6 C0 4.02 0 2.04 0 0 Z " fill="#85878C" transform="translate(1775,877)"/>
<path d="M0 0 C0.91587891 -0.01224609 1.83175781 -0.02449219 2.77539062 -0.03710938 C3.66033203 -0.03904297 4.54527344 -0.04097656 5.45703125 -0.04296875 C6.26760986 -0.04707764 7.07818848 -0.05118652 7.91333008 -0.05541992 C10.47332109 0.21803054 12.0245991 0.80050696 14.1875 2.1875 C16.58379455 5.78194183 16.44531331 8.33611652 16.3828125 12.48046875 C16.3799826 13.18649734 16.37715271 13.89252594 16.37423706 14.61994934 C16.36305464 16.87180633 16.3379542 19.12326352 16.3125 21.375 C16.30246767 22.90298904 16.29334226 24.43098433 16.28515625 25.95898438 C16.26312172 29.70197663 16.22860567 33.44467056 16.1875 37.1875 C14.2075 37.1875 12.2275 37.1875 10.1875 37.1875 C10.1875 36.5275 10.1875 35.8675 10.1875 35.1875 C9.50816406 35.50847656 8.82882812 35.82945312 8.12890625 36.16015625 C4.67395614 37.36686525 1.78070947 37.55853256 -1.875 37.625 C-3.08285156 37.66496094 -4.29070312 37.70492187 -5.53515625 37.74609375 C-8.8125 37.1875 -8.8125 37.1875 -11.2109375 35.0390625 C-13.90088521 30.2496434 -13.71159391 25.52162019 -12.8125 20.1875 C-10.50437218 17.57567115 -8.84381259 16.7031563 -5.8125 15.1875 C-3.26092345 15.1158265 -0.73777029 15.09441558 1.8125 15.125 C2.87210938 15.13176758 2.87210938 15.13176758 3.953125 15.13867188 C5.69795275 15.15046125 7.442737 15.16839676 9.1875 15.1875 C9.06375 13.888125 8.94 12.58875 8.8125 11.25 C8.74289062 10.51910156 8.67328125 9.78820312 8.6015625 9.03515625 C8.46492188 8.42542969 8.32828125 7.81570313 8.1875 7.1875 C4.87755287 5.53252644 1.19627 6.08665665 -2.4375 6.125 C-3.23929688 6.12951172 -4.04109375 6.13402344 -4.8671875 6.13867188 C-6.84899006 6.15046832 -8.83075433 6.16840395 -10.8125 6.1875 C-10.855221 4.52138095 -10.85313832 2.85367115 -10.8125 1.1875 C-8.52690534 -1.09809466 -3.06873796 0.00213255 0 0 Z " fill="#83868B" transform="translate(1289.8125,876.8125)"/>
<path d="M0 0 C10.89 0 21.78 0 33 0 C33 1.98 33 3.96 33 6 C24.42 6 15.84 6 7 6 C7 11.61 7 17.22 7 23 C14.59 23 22.18 23 30 23 C30 24.65 30 26.3 30 28 C22.41 28 14.82 28 7 28 C7 33.94 7 39.88 7 46 C15.91 46 24.82 46 34 46 C34 47.98 34 49.96 34 52 C22.78 52 11.56 52 0 52 C0 34.84 0 17.68 0 0 Z " fill="#86898F" transform="translate(1893,862)"/>
<path d="M0 0 C3.46133838 2.74022621 4.69612776 4.15658981 6 8.375 C6 12.005 6 15.635 6 19.375 C-2.25 19.375 -10.5 19.375 -19 19.375 C-17.12555779 28.06802969 -17.12555779 28.06802969 -13 30.375 C-11.06862318 30.64856843 -11.06862318 30.64856843 -8.98828125 30.5703125 C-7.85229492 30.56064453 -7.85229492 30.56064453 -6.69335938 30.55078125 C-5.90767578 30.53402344 -5.12199219 30.51726563 -4.3125 30.5 C-3.51521484 30.49097656 -2.71792969 30.48195313 -1.89648438 30.47265625 C0.069139 30.44911585 2.03460775 30.41324547 4 30.375 C4.042721 32.04111905 4.04063832 33.70882885 4 35.375 C1.71039012 37.66460988 -3.61673094 36.65517612 -6.6875 36.6875 C-7.58662109 36.71650391 -8.48574219 36.74550781 -9.41210938 36.77539062 C-15.07901185 36.82944032 -18.65047286 36.39574399 -23 32.375 C-25.74603463 27.9987546 -25.33179021 22.9490962 -25.3125 17.9375 C-25.33666992 16.68743164 -25.33666992 16.68743164 -25.36132812 15.41210938 C-25.36535198 10.32193692 -24.86604757 6.75797204 -22 2.375 C-15.65277861 -2.6498836 -7.39922347 -3.73096438 0 0 Z " fill="#83858B" transform="translate(1499,877.625)"/>
<path d="M0 0 C1.98 0 3.96 0 6 0 C6 5.94 6 11.88 6 18 C6.66 18 7.32 18 8 18 C8 17.34 8 16.68 8 16 C12.56208189 13.35546754 16.84942118 13.4565136 22 14 C25.77427718 15.6060754 27.9142661 17.48895963 30 21 C30.34057617 24.29980469 30.34057617 24.29980469 30.29296875 28.171875 C30.28872391 28.8542926 30.28447906 29.53671021 30.28010559 30.23980713 C30.26336972 32.41028004 30.22572959 34.57980979 30.1875 36.75 C30.17244646 38.22524697 30.15875922 39.70050855 30.14648438 41.17578125 C30.11348377 44.78415844 30.06173767 48.3919871 30 52 C28.02 52 26.04 52 24 52 C23.97494385 51.13197754 23.9498877 50.26395508 23.92407227 49.36962891 C23.82900516 46.15286837 23.72976797 42.93627151 23.62768555 39.71972656 C23.58434154 38.3268741 23.54266604 36.93396869 23.50268555 35.54101562 C23.44497068 33.54023349 23.38078131 31.53964141 23.31640625 29.5390625 C23.27974854 28.33459473 23.24309082 27.13012695 23.20532227 25.88916016 C23.18947013 23.06003633 23.18947013 23.06003633 22 21 C20.22950311 20.94589313 18.45853151 20.90715881 16.6875 20.875 C15.70136719 20.85179687 14.71523437 20.82859375 13.69921875 20.8046875 C10.77593473 20.79317361 10.77593473 20.79317361 8 23 C7.48815355 26.00414569 7.48815355 26.00414569 7.48828125 29.5390625 C7.45283203 30.84101562 7.41738281 32.14296875 7.38085938 33.484375 C7.35775769 34.86457809 7.33497536 36.24478657 7.3125 37.625 C7.27933555 39.01305352 7.2448467 40.40107607 7.20898438 41.7890625 C7.12625885 45.19262707 7.05718743 48.5959259 7 52 C4.69 52 2.38 52 0 52 C0 34.84 0 17.68 0 0 Z " fill="#85888D" transform="translate(1836,862)"/>
<path d="M0 0 C2.31 0 4.62 0 7 0 C9.97 8.58 12.94 17.16 16 26 C18.6719795 19.98804613 21.12224964 14.13077338 23.25 7.9375 C23.518125 7.16728516 23.78625 6.39707031 24.0625 5.60351562 C24.71176859 3.73686842 25.35639263 1.86860672 26 0 C28.64 0 31.28 0 34 0 C32.07137386 5.69283066 30.05123333 11.35025155 28 17 C27.782229 17.60148865 27.56445801 18.20297729 27.34008789 18.82269287 C25.84654264 22.94002335 24.32820124 27.04724546 22.78625488 31.146698 C22.26451844 32.54238957 21.74906733 33.9404478 21.2401123 35.34085083 C20.51059582 37.3435133 19.75805722 39.33611909 19 41.328125 C18.566875 42.4924707 18.13375 43.65681641 17.6875 44.85644531 C15.57012776 48.80078631 13.67954236 50.46737382 10 53 C6.125 53.3125 6.125 53.3125 3 53 C3 51.35 3 49.7 3 48 C4.11375 47.443125 5.2275 46.88625 6.375 46.3125 C8.84697973 44.88135384 9.91554263 44.13020511 11.5 41.6875 C12.60773116 35.73344501 10.5403991 30.11689909 8.49609375 24.5703125 C8.2533522 23.89451141 8.01061066 23.21871033 7.76051331 22.52243042 C6.99244246 20.38762825 6.21537179 18.2562481 5.4375 16.125 C4.65787099 13.97171606 3.88011818 11.81777026 3.10377502 9.66329956 C2.62197949 8.32809471 2.13794224 6.99369626 1.651474 5.66018677 C0 1.10933068 0 1.10933068 0 0 Z " fill="#82858A" transform="translate(1339,877)"/>
<path d="M0 0 C2.5625 1.6875 2.5625 1.6875 4.5625 4.6875 C4.73362002 7.15806823 4.79503124 9.51253921 4.7578125 11.98046875 C4.7549826 12.68649734 4.75215271 13.39252594 4.74923706 14.11994934 C4.73805464 16.37180633 4.7129542 18.62326352 4.6875 20.875 C4.67746767 22.40298904 4.66834226 23.93098433 4.66015625 25.45898438 C4.63812172 29.20197663 4.60360567 32.94467056 4.5625 36.6875 C2.5825 36.6875 0.6025 36.6875 -1.4375 36.6875 C-1.46255615 35.81947754 -1.4876123 34.95145508 -1.51342773 34.05712891 C-1.60849484 30.84036837 -1.70773203 27.62377151 -1.80981445 24.40722656 C-1.85315846 23.0143741 -1.89483396 21.62146869 -1.93481445 20.22851562 C-1.99252932 18.22773349 -2.05671869 16.22714141 -2.12109375 14.2265625 C-2.15775146 13.02209473 -2.19440918 11.81762695 -2.23217773 10.57666016 C-2.24802987 7.74753633 -2.24802987 7.74753633 -3.4375 5.6875 C-5.20799689 5.63339313 -6.97896849 5.59465881 -8.75 5.5625 C-9.73613281 5.53929687 -10.72226563 5.51609375 -11.73828125 5.4921875 C-14.66156527 5.48067361 -14.66156527 5.48067361 -17.4375 7.6875 C-17.94934645 10.69164569 -17.94934645 10.69164569 -17.94921875 14.2265625 C-17.98466797 15.52851562 -18.02011719 16.83046875 -18.05664062 18.171875 C-18.07974231 19.55207809 -18.10252464 20.93228657 -18.125 22.3125 C-18.15816445 23.70055352 -18.1926533 25.08857607 -18.22851562 26.4765625 C-18.31124115 29.88012707 -18.38031257 33.2834259 -18.4375 36.6875 C-20.7475 36.6875 -23.0575 36.6875 -25.4375 36.6875 C-25.4375 24.4775 -25.4375 12.2675 -25.4375 -0.3125 C-23.4575 -0.3125 -21.4775 -0.3125 -19.4375 -0.3125 C-19.1075 0.3475 -18.7775 1.0075 -18.4375 1.6875 C-17.633125 1.1925 -16.82875 0.6975 -16 0.1875 C-10.38025141 -2.17870993 -5.69020381 -2.17262327 0 0 Z " fill="#87898E" transform="translate(2055.4375,877.3125)"/>
<path d="M0 0 C2.0625 1.6875 2.0625 1.6875 4.0625 4.6875 C4.23362002 7.15806823 4.29503124 9.51253921 4.2578125 11.98046875 C4.2549826 12.68649734 4.25215271 13.39252594 4.24923706 14.11994934 C4.23805464 16.37180633 4.2129542 18.62326352 4.1875 20.875 C4.17746767 22.40298904 4.16834226 23.93098433 4.16015625 25.45898438 C4.13812172 29.20197663 4.10360567 32.94467056 4.0625 36.6875 C2.0825 36.6875 0.1025 36.6875 -1.9375 36.6875 C-1.95731934 35.81947754 -1.97713867 34.95145508 -1.99755859 34.05712891 C-2.07559872 30.84023733 -2.16228881 27.62372955 -2.25488281 24.40722656 C-2.29319327 23.01441428 -2.32804259 21.62150235 -2.359375 20.22851562 C-2.40497907 18.22763692 -2.46401623 16.22707854 -2.5234375 14.2265625 C-2.57056885 12.41986084 -2.57056885 12.41986084 -2.61865234 10.57666016 C-2.64665226 7.5614982 -2.64665226 7.5614982 -4.9375 5.6875 C-7.23755663 5.3300553 -7.23755663 5.3300553 -9.8125 5.375 C-11.10800781 5.34986328 -11.10800781 5.34986328 -12.4296875 5.32421875 C-15.53723942 5.77437814 -16.72372555 6.46099273 -18.9375 8.6875 C-19.490597 11.68507582 -19.490597 11.68507582 -19.328125 15.10546875 C-19.31523438 16.35908203 -19.30234375 17.61269531 -19.2890625 18.90429688 C-19.23878906 20.86979492 -19.23878906 20.86979492 -19.1875 22.875 C-19.16743307 24.2102601 -19.14918262 25.54554883 -19.1328125 26.88085938 C-19.08559803 30.15046146 -19.01975184 33.41862192 -18.9375 36.6875 C-21.2475 36.6875 -23.5575 36.6875 -25.9375 36.6875 C-25.9375 24.4775 -25.9375 12.2675 -25.9375 -0.3125 C-23.9575 -0.3125 -21.9775 -0.3125 -19.9375 -0.3125 C-19.6075 0.3475 -19.2775 1.0075 -18.9375 1.6875 C-17.968125 1.1925 -16.99875 0.6975 -16 0.1875 C-10.63624034 -2.09726578 -5.35081906 -2.3907915 0 0 Z " fill="#86888D" transform="translate(1681.9375,877.3125)"/>
<path d="M0 0 C3.16762413 1.6733453 5.37437264 3.74874529 7 7 C7.08586809 9.32416296 7.10711043 11.65083307 7.09765625 13.9765625 C7.0962413 14.66181 7.09482635 15.3470575 7.09336853 16.05307007 C7.08776675 18.24375761 7.07521406 20.4343433 7.0625 22.625 C7.05748522 24.10937352 7.05292228 25.59374865 7.04882812 27.078125 C7.03779677 30.71878315 7.02053099 34.35938164 7 38 C5.02 38 3.04 38 1 38 C0.98018066 37.13197754 0.96036133 36.26395508 0.93994141 35.36962891 C0.86190128 32.15273733 0.77521119 28.93622955 0.68261719 25.71972656 C0.64430673 24.32691428 0.60945741 22.93400235 0.578125 21.54101562 C0.53252093 19.54013692 0.47348377 17.53957854 0.4140625 15.5390625 C0.36693115 13.73236084 0.36693115 13.73236084 0.31884766 11.88916016 C0.29084774 8.8739982 0.29084774 8.8739982 -2 7 C-4.5637893 6.64223834 -4.5637893 6.64223834 -7.4375 6.6875 C-8.40558594 6.67074219 -9.37367187 6.65398438 -10.37109375 6.63671875 C-12.96242556 6.7946974 -12.96242556 6.7946974 -14.63232422 8.12158203 C-16.62436985 10.85753331 -16.43575297 13.06028114 -16.51171875 16.41796875 C-16.56489258 18.29838867 -16.56489258 18.29838867 -16.61914062 20.21679688 C-16.64169922 21.52712891 -16.66425781 22.83746094 -16.6875 24.1875 C-16.72067666 25.52282013 -16.75516666 26.85810832 -16.79101562 28.19335938 C-16.87362057 31.46215504 -16.94273229 34.73067812 -17 38 C-18.98 38 -20.96 38 -23 38 C-23 25.79 -23 13.58 -23 1 C-21.35 1 -19.7 1 -18 1 C-18 1.99 -18 2.98 -18 4 C-17.071875 3.34 -16.14375 2.68 -15.1875 2 C-10.33143762 -0.75374269 -5.4392833 -0.97334543 0 0 Z " fill="#82848A" transform="translate(1957,876)"/>
<path d="M0 0 C1.46856445 0.03383789 1.46856445 0.03383789 2.96679688 0.06835938 C5.37527455 0.12710273 7.78059078 0.20917871 10.1875 0.3125 C10.1875 1.9625 10.1875 3.6125 10.1875 5.3125 C8.25583984 5.40337891 8.25583984 5.40337891 6.28515625 5.49609375 C4.60675841 5.58048247 2.92837364 5.6651313 1.25 5.75 C-0.02520508 5.80897461 -0.02520508 5.80897461 -1.32617188 5.86914062 C-2.13505859 5.91103516 -2.94394531 5.95292969 -3.77734375 5.99609375 C-4.5262085 6.03275146 -5.27507324 6.06940918 -6.04663086 6.10717773 C-7.83711326 6.13021063 -7.83711326 6.13021063 -8.8125 7.3125 C-8.52519945 9.65194736 -8.19313221 11.9864143 -7.8125 14.3125 C-6.85988281 14.41046875 -5.90726563 14.5084375 -4.92578125 14.609375 C-3.04439453 14.83367188 -3.04439453 14.83367188 -1.125 15.0625 C0.11636719 15.20171875 1.35773438 15.3409375 2.63671875 15.484375 C6.51027923 16.38777964 8.36078031 17.56444598 11.1875 20.3125 C12.91757568 23.77265135 12.6710273 27.52922555 12.1875 31.3125 C10.07358123 34.81140004 9.07013941 36.01828686 5.1875 37.3125 C3.64535766 37.40485429 2.0995913 37.44317655 0.5546875 37.4453125 C-0.77755859 37.44724609 -0.77755859 37.44724609 -2.13671875 37.44921875 C-3.06097656 37.44535156 -3.98523437 37.44148437 -4.9375 37.4375 C-5.86949219 37.44136719 -6.80148437 37.44523438 -7.76171875 37.44921875 C-8.64730469 37.44792969 -9.53289062 37.44664062 -10.4453125 37.4453125 C-11.25887207 37.44418457 -12.07243164 37.44305664 -12.91064453 37.44189453 C-14.8125 37.3125 -14.8125 37.3125 -15.8125 36.3125 C-15.85313832 34.64632885 -15.855221 32.97861905 -15.8125 31.3125 C-13.91564453 31.34730469 -13.91564453 31.34730469 -11.98046875 31.3828125 C-10.3203184 31.40157126 -8.66016167 31.41977135 -7 31.4375 C-6.16662109 31.45425781 -5.33324219 31.47101562 -4.47460938 31.48828125 C-3.67216797 31.49472656 -2.86972656 31.50117187 -2.04296875 31.5078125 C-0.93538208 31.52352295 -0.93538208 31.52352295 0.19458008 31.53955078 C2.50640676 31.42991479 2.50640676 31.42991479 5.1875 29.3125 C5.60416667 26.8125 5.60416667 26.8125 5.1875 24.3125 C1.8427964 20.9677964 -2.86341349 21.51836026 -7.4296875 21.0703125 C-11.20686204 20.22415562 -12.4918932 19.3505891 -14.8125 16.3125 C-16.02718687 12.66843938 -16.73384277 9.06662801 -15.8125 5.3125 C-11.60965098 -0.91624664 -6.83527874 -0.29838356 0 0 Z " fill="#83858B" transform="translate(1579.8125,876.6875)"/>
<path d="M0 0 C1.32547852 0.02030273 1.32547852 0.02030273 2.67773438 0.04101562 C4.84792023 0.07620783 7.01779033 0.13001015 9.1875 0.1875 C9.1875 1.8375 9.1875 3.4875 9.1875 5.1875 C7.98351563 5.23648438 6.77953125 5.28546875 5.5390625 5.3359375 C3.96351802 5.41096343 2.38799834 5.48651133 0.8125 5.5625 C0.0184375 5.5934375 -0.775625 5.624375 -1.59375 5.65625 C-6.17917375 5.70566421 -6.17917375 5.70566421 -9.8125 8.1875 C-10.25943579 11.29181665 -10.13658589 14.42967433 -10.125 17.5625 C-10.14111328 18.42617188 -10.15722656 19.28984375 -10.17382812 20.1796875 C-10.1765266 23.67690708 -10.08122696 26.49797578 -8.8046875 29.7734375 C-5.64345984 32.01728929 -2.33890015 31.60616621 1.375 31.4375 C2.12458984 31.41945313 2.87417969 31.40140625 3.64648438 31.3828125 C5.4940371 31.33574109 7.34093159 31.26399766 9.1875 31.1875 C9.1875 32.8375 9.1875 34.4875 9.1875 36.1875 C5.9482886 37.8071057 2.43045619 37.41373755 -1.125 37.4375 C-1.88490234 37.458125 -2.64480469 37.47875 -3.42773438 37.5 C-8.04678157 37.53210459 -11.08335221 37.213035 -14.8125 34.1875 C-17.93969328 28.79578745 -18.11112196 23.66360363 -18.1875 17.5625 C-18.20143799 16.83401855 -18.21537598 16.10553711 -18.22973633 15.35498047 C-18.18814037 10.61088073 -17.5284323 7.23174854 -14.8125 3.1875 C-10.43298001 -0.74664507 -5.55691416 -0.16161048 0 0 Z " fill="#84878C" transform="translate(1529.8125,876.8125)"/>
<path d="M0 0 C1.4540625 0.0309375 1.4540625 0.0309375 2.9375 0.0625 C2.9375 3.6925 2.9375 7.3225 2.9375 11.0625 C5.9075 11.0625 8.8775 11.0625 11.9375 11.0625 C11.9375 12.7125 11.9375 14.3625 11.9375 16.0625 C8.9675 16.0625 5.9975 16.0625 2.9375 16.0625 C3.07592295 20.02112931 3.22449006 23.97931327 3.375 27.9375 C3.41431641 29.06542969 3.45363281 30.19335938 3.49414062 31.35546875 C3.53603516 32.43183594 3.57792969 33.50820313 3.62109375 34.6171875 C3.65775146 35.61218262 3.69440918 36.60717773 3.73217773 37.63232422 C3.78709532 40.07029501 3.78709532 40.07029501 4.9375 42.0625 C6.83283342 42.52773063 6.83283342 42.52773063 9 42.6875 C10.9490625 42.873125 10.9490625 42.873125 12.9375 43.0625 C12.6075 44.7125 12.2775 46.3625 11.9375 48.0625 C10.00190687 48.19754138 8.063628 48.29451129 6.125 48.375 C4.50658203 48.46201172 4.50658203 48.46201172 2.85546875 48.55078125 C-0.0625 48.0625 -0.0625 48.0625 -1.7265625 45.9453125 C-3.30802878 42.53267474 -3.40684757 40.19987248 -3.35546875 36.44921875 C-3.34580078 35.20205078 -3.33613281 33.95488281 -3.32617188 32.66992188 C-3.30103516 31.37634766 -3.27589844 30.08277344 -3.25 28.75 C-3.23646484 27.43708984 -3.22292969 26.12417969 -3.20898438 24.77148438 C-3.17367443 21.53473923 -3.1243528 18.29882895 -3.0625 15.0625 C-4.7125 15.0625 -6.3625 15.0625 -8.0625 15.0625 C-8.0625 13.7425 -8.0625 12.4225 -8.0625 11.0625 C-6.7425 11.0625 -5.4225 11.0625 -4.0625 11.0625 C-4.07410156 10.35222656 -4.08570313 9.64195312 -4.09765625 8.91015625 C-4.11119141 7.53150391 -4.11119141 7.53150391 -4.125 6.125 C-4.13660156 5.20847656 -4.14820313 4.29195312 -4.16015625 3.34765625 C-4.00919455 -0.18484756 -3.60673121 0.07360676 0 0 Z " fill="#84878C" transform="translate(1816.0625,865.9375)"/>
<path d="M0 0 C1.98 0 3.96 0 6 0 C6 3.63 6 7.26 6 11 C9.3 11 12.6 11 16 11 C16 12.65 16 14.3 16 16 C12.7 16 9.4 16 6 16 C6.13813025 20.14612814 6.28678859 24.29181162 6.4375 28.4375 C6.47681641 29.62150391 6.51613281 30.80550781 6.55664062 32.02539062 C6.61948242 33.71245117 6.61948242 33.71245117 6.68359375 35.43359375 C6.72025146 36.47572021 6.75690918 37.51784668 6.79467773 38.59155273 C6.73515341 40.9499826 6.73515341 40.9499826 8 42 C9.34747084 42.23075082 10.70377565 42.41153063 12.0625 42.5625 C13.361875 42.706875 14.66125 42.85125 16 43 C16 44.65 16 46.3 16 48 C14.06318839 48.08107583 12.1254066 48.13922475 10.1875 48.1875 C9.10855469 48.22230469 8.02960938 48.25710938 6.91796875 48.29296875 C4 48 4 48 2.17578125 46.67578125 C-0.23919348 43.23384053 -0.1174632 40.0799568 -0.09765625 36.01953125 C-0.09443359 34.85615234 -0.09121094 33.69277344 -0.08789062 32.49414062 C-0.07951172 31.27919922 -0.07113281 30.06425781 -0.0625 28.8125 C-0.05798828 27.58595703 -0.05347656 26.35941406 -0.04882812 25.09570312 C-0.03703065 22.06375332 -0.02056921 19.03190094 0 16 C-1.65 16 -3.3 16 -5 16 C-5 14.35 -5 12.7 -5 11 C-3.35 11 -1.7 11 0 11 C0 7.37 0 3.74 0 0 Z " fill="#82858A" transform="translate(1230,866)"/>
<path d="M0 0 C0 1.98 0 3.96 0 6 C-1.953125 6.13020833 -3.90625 6.26041667 -5.859375 6.390625 C-8.86906181 7.24739716 -10.03899485 8.57438748 -12 11 C-12.63914976 13.98687874 -12.63914976 13.98687874 -12.609375 17.296875 C-12.64160156 18.50214844 -12.67382812 19.70742188 -12.70703125 20.94921875 C-12.72830078 22.83060547 -12.72830078 22.83060547 -12.75 24.75 C-12.77964844 26.01972656 -12.80929687 27.28945313 -12.83984375 28.59765625 C-12.91053951 31.73183485 -12.96324012 34.86526956 -13 38 C-14.98 38 -16.96 38 -19 38 C-19 25.79 -19 13.58 -19 1 C-17.02 1 -15.04 1 -13 1 C-12.67 1.99 -12.34 2.98 -12 4 C-11.566875 3.525625 -11.13375 3.05125 -10.6875 2.5625 C-7.45956966 -0.42632439 -4.17540078 -0.09278668 0 0 Z " fill="#828489" transform="translate(1164,876)"/>
<path d="M0 0 C1.98 0 3.96 0 6 0 C6.33 0.99 6.66 1.98 7 3 C7.495 2.505 7.99 2.01 8.5 1.5 C12.11630158 -0.66978095 14.82231616 -0.20888419 19 0 C19 1.65 19 3.3 19 5 C17.046875 5.13020833 15.09375 5.26041667 13.140625 5.390625 C10.13093819 6.24739716 8.96100515 7.57438748 7 10 C6.36085024 12.98687874 6.36085024 12.98687874 6.390625 16.296875 C6.35839844 17.50214844 6.32617188 18.70742188 6.29296875 19.94921875 C6.27169922 21.83060547 6.27169922 21.83060547 6.25 23.75 C6.22035156 25.01972656 6.19070313 26.28945313 6.16015625 27.59765625 C6.08946049 30.73183485 6.03675988 33.86526956 6 37 C4.02 37 2.04 37 0 37 C0 24.79 0 12.58 0 0 Z " fill="#83858A" transform="translate(1253,877)"/>
<path d="M0 0 C1.98 0 3.96 0 6 0 C6.33 0.99 6.66 1.98 7 3 C7.495 2.505 7.99 2.01 8.5 1.5 C12.11630158 -0.66978095 14.82231616 -0.20888419 19 0 C19 1.65 19 3.3 19 5 C18.30132813 5.10957031 17.60265625 5.21914063 16.8828125 5.33203125 C15.51769531 5.56986328 15.51769531 5.56986328 14.125 5.8125 C13.22007813 5.96332031 12.31515625 6.11414063 11.3828125 6.26953125 C8.65587522 6.83051301 8.65587522 6.83051301 7 10 C6.63112811 12.90644244 6.63112811 12.90644244 6.5859375 16.19921875 C6.54726562 17.40771484 6.50859375 18.61621094 6.46875 19.86132812 C6.42234375 21.7552832 6.42234375 21.7552832 6.375 23.6875 C6.31699219 25.59885742 6.31699219 25.59885742 6.2578125 27.54882812 C6.16342314 30.69907292 6.0778417 33.84930991 6 37 C4.02 37 2.04 37 0 37 C0 24.79 0 12.58 0 0 Z " fill="#82858A" transform="translate(1316,877)"/>
<path d="M0 0 C1.65 0 3.3 0 5 0 C5.33 1.32 5.66 2.64 6 4 C6.7115625 3.01 6.7115625 3.01 7.4375 2 C11.14875563 -0.89658976 14.45397207 -0.34969446 19 0 C19 1.65 19 3.3 19 5 C18.30132813 5.12117187 17.60265625 5.24234375 16.8828125 5.3671875 C15.97273438 5.53476562 15.06265625 5.70234375 14.125 5.875 C12.76761719 6.11863281 12.76761719 6.11863281 11.3828125 6.3671875 C8.83494012 6.83044703 8.83494012 6.83044703 7 9 C6.62731113 11.91188245 6.62731113 11.91188245 6.5859375 15.3203125 C6.54726562 16.57714844 6.50859375 17.83398438 6.46875 19.12890625 C6.42234375 21.10697266 6.42234375 21.10697266 6.375 23.125 C6.33681971 24.46486918 6.29776794 25.80471383 6.2578125 27.14453125 C6.1632797 30.42954619 6.07772844 33.71455138 6 37 C4.02 37 2.04 37 0 37 C0 24.79 0 12.58 0 0 Z " fill="#82848A" transform="translate(1451,877)"/>
<path d="M0 0 C2.31 0 4.62 0 7 0 C7 12.21 7 24.42 7 37 C4.69 37 2.38 37 0 37 C0 24.79 0 12.58 0 0 Z " fill="#8E9196" transform="translate(1548,877)"/>
<path d="M0 0 C1.98 0 3.96 0 6 0 C6 12.21 6 24.42 6 37 C4.02 37 2.04 37 0 37 C0 24.79 0 12.58 0 0 Z " fill="#84868B" transform="translate(1600,877)"/>
<path d="M0 0 C1.98 0 3.96 0 6 0 C6 12.21 6 24.42 6 37 C4.02 37 2.04 37 0 37 C0 24.79 0 12.58 0 0 Z " fill="#818288" transform="translate(1211,877)"/>
<path d="M0 0 C1.98 0 3.96 0 6 0 C6 12.21 6 24.42 6 37 C4.02 37 2.04 37 0 37 C0 24.79 0 12.58 0 0 Z " fill="#818287" transform="translate(2014,877)"/>
<path d="M0 0 C4.59821897 0.16531083 9.19786807 0.23708955 13.79821777 0.31738281 C22.78372684 0.48768809 31.76290508 0.75978479 40.74353027 1.09863281 C40.74353027 2.74863281 40.74353027 4.39863281 40.74353027 6.09863281 C40.08353027 6.42863281 39.42353027 6.75863281 38.74353027 7.09863281 C38.74353027 5.77863281 38.74353027 4.45863281 38.74353027 3.09863281 C29.07583271 2.90381375 19.41103602 2.78648284 9.74139214 2.76441383 C5.24960014 2.75180481 0.76117783 2.7138619 -3.72961426 2.61523438 C-25.68884055 1.0365992 -25.68884055 1.0365992 -44.9156189 9.20346069 C-47.43319395 12.02045261 -49.40264765 14.80360152 -51.25646973 18.09863281 C-51.91646973 17.76863281 -52.57646973 17.43863281 -53.25646973 17.09863281 C-41.18788828 -3.92599488 -21.22671807 -0.84461736 0 0 Z " fill="#46989A" transform="translate(2264.2564697265625,683.9013671875)"/>
<path d="M0 0 C7.26 0 14.52 0 22 0 C21.67 0.66 21.34 1.32 21 2 C14.73 2 8.46 2 2 2 C2 8.27 2 14.54 2 21 C17.84 21.495 17.84 21.495 34 22 C34 22.33 34 22.66 34 23 C22.78 23 11.56 23 0 23 C0 15.41 0 7.82 0 0 Z " fill="#55A1A3" transform="translate(2125,835)"/>
<path d="M0 0 C6.6 0 13.2 0 20 0 C20 1.65 20 3.3 20 5 C13.4 5 6.8 5 0 5 C0 3.35 0 1.7 0 0 Z " fill="#84868B" transform="translate(1377,890)"/>
<path d="M0 0 C3 0.125 3 0.125 4 1.125 C4.125 4.125 4.125 4.125 4 7.125 C3 8.125 3 8.125 0 8.25 C-3 8.125 -3 8.125 -4 7.125 C-4.125 4.125 -4.125 4.125 -4 1.125 C-3 0.125 -3 0.125 0 0 Z " fill="#909296" transform="translate(1214,861.875)"/>
<path d="M0 0 C0.8359375 1.61328125 0.8359375 1.61328125 1 4 C-0.71996389 6.26998768 -2.3857507 8.17826415 -4.375 10.1875 C-4.92285156 10.75758789 -5.47070312 11.32767578 -6.03515625 11.91503906 C-7.15026065 13.07108261 -8.271035 14.22168432 -9.39746094 15.36669922 C-10.83662111 16.83348495 -12.25196031 18.32355335 -13.6640625 19.81640625 C-19.97262204 26.38870156 -19.97262204 26.38870156 -24 27 C-21.40048867 24.38620564 -18.78807649 21.79587205 -16.1328125 19.23828125 C-9.9662649 13.2663387 -4.59532046 7.31367905 0 0 Z " fill="#DBF5F6" transform="translate(726,679)"/>
<path d="M0 0 C1.99954746 -0.04254356 4.00041636 -0.04080783 6 0 C7 1 7 1 7.0625 4.0625 C7.041875 5.031875 7.02125 6.00125 7 7 C4.69 7 2.38 7 0 7 C0 4.69 0 2.38 0 0 Z " fill="#84868B" transform="translate(1548,862)"/>
<path d="M0 0 C1.4540625 0.0309375 1.4540625 0.0309375 2.9375 0.0625 C2.9375 2.3725 2.9375 4.6825 2.9375 7.0625 C0.6275 7.0625 -1.6825 7.0625 -4.0625 7.0625 C-4.10504356 5.06295254 -4.10330783 3.06208364 -4.0625 1.0625 C-3.0625 0.0625 -3.0625 0.0625 0 0 Z " fill="#828489" transform="translate(2017.0625,861.9375)"/>
<path d="M0 0 C2.5 0.125 2.5 0.125 3.5 1.125 C3.54080783 3.12458364 3.54254356 5.12545254 3.5 7.125 C1.19 7.125 -1.12 7.125 -3.5 7.125 C-3.54254356 5.12545254 -3.54080783 3.12458364 -3.5 1.125 C-2.5 0.125 -2.5 0.125 0 0 Z " fill="#82858B" transform="translate(1603.5,861.875)"/>
<path d="M0 0 C0 3 0 3 -1.37695312 4.7175293 C-2.00537109 5.33023682 -2.63378906 5.94294434 -3.28125 6.57421875 C-3.95800781 7.24130859 -4.63476562 7.90839844 -5.33203125 8.59570312 C-6.04746094 9.28599609 -6.76289062 9.97628906 -7.5 10.6875 C-8.57314453 11.7403418 -8.57314453 11.7403418 -9.66796875 12.81445312 C-11.43879577 14.54986361 -13.21623456 16.2779073 -15 18 C-15.66 17.67 -16.32 17.34 -17 17 C-15.29657414 15.09955869 -13.58752883 13.20471126 -11.875 11.3125 C-11.400625 10.78205078 -10.92625 10.25160156 -10.4375 9.70507812 C-7.18500869 6.12294242 -3.77952775 3.02250068 0 0 Z " fill="#53A2A3" transform="translate(825,852)"/>
<path d="M0 0 C1.64574566 -0.02688151 3.29161413 -0.04634123 4.9375 -0.0625 C5.85402344 -0.07410156 6.77054688 -0.08570313 7.71484375 -0.09765625 C10 0 10 0 11 1 C12.68183948 1.23287008 14.3712416 1.41264166 16.0625 1.5625 C16.98160156 1.64628906 17.90070312 1.73007812 18.84765625 1.81640625 C19.91306641 1.90728516 19.91306641 1.90728516 21 2 C21 2.33 21 2.66 21 3 C6.21867882 3.3690205 6.21867882 3.3690205 0 1 C0 0.67 0 0.34 0 0 Z " fill="#C8E7E8" transform="translate(881,989)"/>
<path d="M0 0 C0.66 0.33 1.32 0.66 2 1 C1.154375 1.639375 0.30875 2.27875 -0.5625 2.9375 C-4.73406821 6.38227948 -7.80853331 10.666026 -11 15 C-11.66 14.67 -12.32 14.34 -13 14 C-11.77801556 12.41111701 -10.54705525 10.82913536 -9.3125 9.25 C-8.28576172 7.92742188 -8.28576172 7.92742188 -7.23828125 6.578125 C-5.01538057 4.01771584 -2.70749594 2.02943654 0 0 Z " fill="#DAF4F4" transform="translate(866,898)"/>
<path d="M0 0 C0.99 0.33 1.98 0.66 3 1 C1.88121617 2.17262904 0.75476949 3.33795138 -0.375 4.5 C-1.00148438 5.1496875 -1.62796875 5.799375 -2.2734375 6.46875 C-4 8 -4 8 -6 8 C-4.55746343 4.63408134 -2.66735273 2.48952921 0 0 Z " fill="#55A5A7" transform="translate(558,535)"/>
<path d="M0 0 C-1.49097658 3.7952131 -3.75700849 5.61042731 -7 8 C-7 5 -7 5 -4.625 2.3125 C-2 0 -2 0 0 0 Z " fill="#D6F1F1" transform="translate(2220,691)"/>
<path d="M0 0 C0.66 0 1.32 0 2 0 C0.6302836 3.99500618 -1.25722422 6.80009492 -4 10 C-3.52651586 5.8333396 -2.95303159 3.07115285 0 0 Z " fill="#535E69" transform="translate(970,521)"/>
<path d="M0 0 C0.33 0.66 0.66 1.32 1 2 C-2.28804981 4.91227269 -4.59885603 6.49701212 -9 7 C-6.24479785 4.04070881 -3.53372712 1.96318174 0 0 Z " fill="#539FA1" transform="translate(835,845)"/>
</svg>
