<?xml version="1.0" encoding="UTF-8"?>
<svg version="1.1" xmlns="http://www.w3.org/2000/svg" width="100%" height="100%" viewBox="480 430 600 600">
<path d="M0 0 C1.28878555 -0.00153328 1.28878555 -0.00153328 2.60360718 -0.00309753 C5.4292396 0.00175989 8.25159606 0.05610954 11.07666016 0.11108398 C13.04104853 0.12414685 15.00545978 0.13410777 16.96987915 0.14109802 C22.1292872 0.16776945 27.28730615 0.23648429 32.44616699 0.31402588 C37.71473398 0.38575468 42.98352642 0.41763013 48.25244141 0.45288086 C58.58247735 0.52785584 68.9114843 0.64725909 79.24072266 0.79467773 C77.15136754 6.12525739 74.40398016 10.78645883 71.42822266 15.66967773 C70.81930176 16.66926514 70.21038086 17.66885254 69.58300781 18.69873047 C62.21158848 30.65250633 54.25292031 42.20474186 46.32971191 53.79606628 C33.28165464 72.8990102 20.52480652 92.19106204 8.24072266 111.79467773 C7.64485352 112.7447168 7.04898437 113.69475586 6.43505859 114.67358398 C2.65997348 120.69626313 -1.10359099 126.72606316 -4.86376953 132.75805664 C-6.75457487 135.78714433 -8.65059537 138.81290213 -10.54833984 141.83764648 C-17.27367415 152.56236855 -23.92887176 163.32440631 -30.48999023 174.15039062 C-35.30610532 182.08388994 -40.22130256 189.95270967 -45.15380859 197.81420898 C-49.41020884 204.60858701 -53.60402007 211.43803424 -57.75927734 218.29467773 C-62.53053563 226.16779242 -67.36655632 233.99647002 -72.25927734 241.79467773 C-77.78937641 250.60983565 -83.23741496 259.47070403 -88.63476562 268.36767578 C-92.43767558 274.63321358 -96.27076596 280.87883357 -100.13427734 287.10717773 C-110.09717519 303.17030769 -120.01651639 319.25977319 -129.82177734 335.41967773 C-134.51088836 343.14615942 -139.26640823 350.82750147 -144.07177734 358.48217773 C-149.96009079 367.8632844 -155.73860114 377.30604474 -161.47320557 386.78143311 C-166.60791227 395.2652263 -171.78756866 403.71909582 -177.02197266 412.1418457 C-180.93204546 418.44005569 -184.79003078 424.76861357 -188.63427734 431.10717773 C-193.38552875 438.93811469 -198.20127813 446.72488705 -203.07177734 454.48217773 C-209.25749931 464.33853018 -215.32033862 474.26530335 -221.34570312 484.2199707 C-226.82835002 493.27595471 -232.36308398 502.29884802 -237.921875 511.30834961 C-241.22120878 516.65915523 -244.50746936 522.01722458 -247.76708984 527.39233398 C-248.40751221 528.44831787 -249.04793457 529.50430176 -249.70776367 530.59228516 C-250.91781011 532.5900108 -252.1260858 534.58881048 -253.33227539 536.58886719 C-253.87150635 537.47920654 -254.4107373 538.3695459 -254.96630859 539.28686523 C-255.43528564 540.06400879 -255.9042627 540.84115234 -256.38745117 541.6418457 C-256.84015381 542.35228027 -257.29285645 543.06271484 -257.75927734 543.79467773 C-258.24684509 544.83723221 -258.24684509 544.83723221 -258.7442627 545.90084839 C-262.08986685 549.04524405 -265.95544631 548.31679853 -270.37133789 548.2487793 C-271.3568866 548.2493634 -272.3424353 548.24994751 -273.35784912 548.25054932 C-276.62092098 548.24775883 -279.88308349 548.2166206 -283.14599609 548.18530273 C-285.40614828 548.17784379 -287.66630693 548.17214923 -289.9264679 548.16815186 C-295.87950448 548.15286833 -301.83215162 548.1135627 -307.78503418 548.06933594 C-313.85777518 548.02844206 -319.93057901 548.0101534 -326.00341797 547.98999023 C-337.92220901 547.9470714 -349.84071081 547.87878692 -361.75927734 547.79467773 C-360.49815748 544.57953501 -359.18231736 541.62731688 -357.39599609 538.66967773 C-356.92822754 537.89197021 -356.46045898 537.1142627 -355.97851562 536.31298828 C-355.47304199 535.4819458 -354.96756836 534.65090332 -354.44677734 533.79467773 C-353.91552246 532.91529541 -353.38426758 532.03591309 -352.83691406 531.12988281 C-348.52569622 524.01163924 -344.15017209 516.93352013 -339.75805664 509.86499023 C-335.72077966 503.36417845 -331.73061007 496.83595476 -327.75927734 490.29467773 C-322.80748098 482.14166501 -317.81627822 474.01463243 -312.7878418 465.90869141 C-308.4926734 458.98393335 -304.21603088 452.04794118 -299.94677734 445.10717773 C-299.27533691 444.0155835 -298.60389648 442.92398926 -297.91210938 441.79931641 C-296.54387402 439.57466949 -295.17571031 437.34997852 -293.80761719 435.12524414 C-289.79545207 428.6015306 -285.78080215 422.07934595 -281.76660156 415.55688477 C-278.3948329 410.07807006 -275.0236985 404.598867 -271.65380859 399.11889648 C-265.01394704 388.32278572 -258.36565086 377.5321459 -251.68774414 366.75952148 C-248.08557633 360.94569 -244.49961644 355.12207086 -240.91943359 349.29467773 C-234.46043879 338.78176489 -227.95975334 328.29683587 -221.40869141 317.84106445 C-215.42232835 308.27702457 -209.51351661 298.66592844 -203.60693359 289.05249023 C-198.53716098 280.80195617 -193.43725236 272.57016468 -188.3359375 264.33911133 C-185.64219181 259.99191133 -182.95085056 255.64322304 -180.25927734 251.29467773 C-177.04557075 246.10256606 -173.83147332 240.91069995 -170.61474609 235.72045898 C-165.36636771 227.25011881 -160.12887895 218.77335711 -154.91259766 210.28320312 C-147.82139836 198.74250672 -140.68445049 187.23206926 -133.48974609 175.75561523 C-130.93839328 171.68500809 -128.40084056 167.6062152 -125.87255859 163.52124023 C-118.7781485 152.07374654 -111.57823801 140.76206592 -103.75927734 129.79467773 C-103.26250488 129.09745605 -102.76573242 128.40023437 -102.25390625 127.68188477 C-91.8656483 113.14220347 -81.26079843 98.75496971 -70.50927734 84.48217773 C-66.03735153 78.54201101 -61.67619884 72.53328867 -57.37255859 66.47045898 C-49.37299442 55.20099997 -41.22720154 44.03791883 -33.00830078 32.92773438 C-30.04530237 28.91709847 -27.10265531 24.89381552 -24.19677734 20.84155273 C-23.61927734 20.0365332 -23.04177734 19.23151367 -22.44677734 18.40209961 C-21.36054324 16.88464062 -20.2769908 15.36525657 -19.19677734 13.84350586 C-18.45427734 12.80613281 -18.45427734 12.80613281 -17.69677734 11.74780273 C-17.27267578 11.15128906 -16.84857422 10.55477539 -16.41162109 9.94018555 C-15.86634766 9.23216797 -15.32107422 8.52415039 -14.75927734 7.79467773 C-14.37452429 7.2294424 -13.98977123 6.66420706 -13.59335899 6.08184338 C-9.55157048 0.63930045 -6.62202425 -0.20798379 0 0 Z " fill="#364352" transform="translate(901.75927734375,505.205322265625)"/>
<path d="M0 0 C23.67954441 19.38418519 39.78587823 45.34851709 43.51953125 76.0625 C44.84823832 94.49014227 44.01582673 111.63288494 37.51953125 129.0625 C37.25221191 129.79984375 36.98489258 130.5371875 36.70947266 131.296875 C27.04487751 157.30644229 6.80699482 179.30903902 -17.890625 191.78515625 C-26.79769286 195.78362184 -36.05019063 198.60052382 -45.48046875 201.0625 C-46.13144531 201.25013916 -46.78242187 201.43777832 -47.453125 201.63110352 C-54.81505391 203.56066923 -62.28813029 203.50142681 -69.85546875 203.5 C-70.56401001 203.50139984 -71.27255127 203.50279968 -72.00256348 203.50424194 C-83.77397017 203.48513791 -94.40323253 202.18828002 -105.48046875 198.0625 C-106.55167969 197.68996094 -107.62289062 197.31742188 -108.7265625 196.93359375 C-130.59947858 188.59690462 -151.19579208 173.17234742 -163.48046875 153.0625 C-164.00785645 152.21244385 -164.00785645 152.21244385 -164.54589844 151.34521484 C-170.68250856 141.35556691 -175.0401659 131.25576073 -178.48046875 120.0625 C-178.80917969 119.00675781 -179.13789062 117.95101562 -179.4765625 116.86328125 C-187.20267177 90.35792075 -182.07420435 60.86515077 -169.28271484 36.81005859 C-164.24383337 27.89234032 -158.30881443 19.70251696 -151.48046875 12.0625 C-150.92101562 11.43214844 -150.3615625 10.80179688 -149.78515625 10.15234375 C-111.37094226 -30.58156915 -43.72518818 -33.56416244 0 0 Z " fill="#3B9FA2" transform="translate(965.48046875,849.9375)"/>
<path d="M0 0 C1.24265625 0.3403125 2.4853125 0.680625 3.765625 1.03125 C18.66081804 5.56723471 31.1167069 13.06179835 43 23 C43.94617188 23.78117188 44.89234375 24.56234375 45.8671875 25.3671875 C65.79609126 42.586212 79.99789243 67.75148429 83 94 C84.71015225 128.0872707 76.51766626 157.87819506 53.51123047 183.66894531 C39.25740679 199.17847369 22.23586074 210.12020452 2.3125 216.875 C1.04877563 217.30462036 1.04877563 217.30462036 -0.24047852 217.74291992 C-20.63456211 224.30923424 -44.61779028 224.80275797 -65 218 C-65.99531738 217.68651611 -65.99531738 217.68651611 -67.01074219 217.36669922 C-81.58952576 212.7172305 -94.54724855 205.16258015 -106 195 C-106.73347656 194.360625 -107.46695313 193.72125 -108.22265625 193.0625 C-127.28055173 175.31546506 -139.93719961 147.36382117 -141.11669922 121.43457031 C-142.21124219 89.49134106 -135.57177832 61.98247785 -115 37 C-114.24074219 36.07574219 -113.48148438 35.15148437 -112.69921875 34.19921875 C-85.22263109 2.40552402 -40.63898664 -11.19829854 0 0 Z " fill="#379EA1" transform="translate(663,509)"/>
<path d="M0 0 C0.8359375 1.61328125 0.8359375 1.61328125 1 4 C-0.71996389 6.26998768 -2.3857507 8.17826415 -4.375 10.1875 C-4.92285156 10.75758789 -5.47070312 11.32767578 -6.03515625 11.91503906 C-7.15026065 13.07108261 -8.271035 14.22168432 -9.39746094 15.36669922 C-10.83662111 16.83348495 -12.25196031 18.32355335 -13.6640625 19.81640625 C-19.97262204 26.38870156 -19.97262204 26.38870156 -24 27 C-21.40048867 24.38620564 -18.78807649 21.79587205 -16.1328125 19.23828125 C-9.9662649 13.2663387 -4.59532046 7.31367905 0 0 Z " fill="#DBF5F6" transform="translate(726,679)"/>
<path d="M0 0 C0 3 0 3 -1.37695312 4.7175293 C-2.00537109 5.33023682 -2.63378906 5.94294434 -3.28125 6.57421875 C-3.95800781 7.24130859 -4.63476562 7.90839844 -5.33203125 8.59570312 C-6.04746094 9.28599609 -6.76289062 9.97628906 -7.5 10.6875 C-8.57314453 11.7403418 -8.57314453 11.7403418 -9.66796875 12.81445312 C-11.43879577 14.54986361 -13.21623456 16.2779073 -15 18 C-15.66 17.67 -16.32 17.34 -17 17 C-15.29657414 15.09955869 -13.58752883 13.20471126 -11.875 11.3125 C-11.400625 10.78205078 -10.92625 10.25160156 -10.4375 9.70507812 C-7.18500869 6.12294242 -3.77952775 3.02250068 0 0 Z " fill="#53A2A3" transform="translate(825,852)"/>
<path d="M0 0 C1.64574566 -0.02688151 3.29161413 -0.04634123 4.9375 -0.0625 C5.85402344 -0.07410156 6.77054688 -0.08570313 7.71484375 -0.09765625 C10 0 10 0 11 1 C12.68183948 1.23287008 14.3712416 1.41264166 16.0625 1.5625 C16.98160156 1.64628906 17.90070312 1.73007812 18.84765625 1.81640625 C19.91306641 1.90728516 19.91306641 1.90728516 21 2 C21 2.33 21 2.66 21 3 C6.21867882 3.3690205 6.21867882 3.3690205 0 1 C0 0.67 0 0.34 0 0 Z " fill="#C8E7E8" transform="translate(881,989)"/>
<path d="M0 0 C0.66 0.33 1.32 0.66 2 1 C1.154375 1.639375 0.30875 2.27875 -0.5625 2.9375 C-4.73406821 6.38227948 -7.80853331 10.666026 -11 15 C-11.66 14.67 -12.32 14.34 -13 14 C-11.77801556 12.41111701 -10.54705525 10.82913536 -9.3125 9.25 C-8.28576172 7.92742188 -8.28576172 7.92742188 -7.23828125 6.578125 C-5.01538057 4.01771584 -2.70749594 2.02943654 0 0 Z " fill="#DAF4F4" transform="translate(866,898)"/>
<path d="M0 0 C0.99 0.33 1.98 0.66 3 1 C1.88121617 2.17262904 0.75476949 3.33795138 -0.375 4.5 C-1.00148438 5.1496875 -1.62796875 5.799375 -2.2734375 6.46875 C-4 8 -4 8 -6 8 C-4.55746343 4.63408134 -2.66735273 2.48952921 0 0 Z " fill="#55A5A7" transform="translate(558,535)"/>
<path d="M0 0 C0.66 0 1.32 0 2 0 C0.6302836 3.99500618 -1.25722422 6.80009492 -4 10 C-3.52651586 5.8333396 -2.95303159 3.07115285 0 0 Z " fill="#535E69" transform="translate(970,521)"/>
<path d="M0 0 C0.33 0.66 0.66 1.32 1 2 C-2.28804981 4.91227269 -4.59885603 6.49701212 -9 7 C-6.24479785 4.04070881 -3.53372712 1.96318174 0 0 Z " fill="#539FA1" transform="translate(835,845)"/>
</svg>
